<mxfile host="65bd71144e" pages="4">
    <diagram id="UMS9nKY7Dt_vSzlsI9hF" name="use_case">
        <mxGraphModel dx="1198" dy="440" grid="1" gridSize="10" guides="1" tooltips="1" connect="1" arrows="1" fold="1" page="1" pageScale="1" pageWidth="850" pageHeight="1100" background="#18141D" math="0" shadow="0">
            <root>
                <mxCell id="0"/>
                <mxCell id="1" parent="0"/>
                <mxCell id="26JbVEqzZZ2M_qQydOJm-19" value="uc Primary Use Case" style="shape=umlFrame;whiteSpace=wrap;html=1;width=130;height=30;boundedLbl=1;verticalAlign=middle;align=left;spacingLeft=5;movable=1;resizable=1;rotatable=1;deletable=1;editable=1;connectable=1;" vertex="1" parent="1">
                    <mxGeometry x="15" y="10" width="820" height="1590" as="geometry"/>
                </mxCell>
                <mxCell id="bJMHT8rVgH3jV2KobR5U-139" value="" style="shape=folder;fontStyle=1;tabWidth=200;tabHeight=30;tabPosition=left;html=1;boundedLbl=1;" parent="1" vertex="1">
                    <mxGeometry x="239.36" y="507" width="404.38" height="283" as="geometry"/>
                </mxCell>
                <mxCell id="UlYFYkiMUmtQ9-Gsjq0C-41" style="edgeStyle=none;html=1;entryX=0;entryY=0.5;entryDx=0;entryDy=0;exitX=1;exitY=0.3333333333333333;exitDx=0;exitDy=0;exitPerimeter=0;" parent="1" target="6" edge="1" source="bJMHT8rVgH3jV2KobR5U-130">
                    <mxGeometry relative="1" as="geometry">
                        <mxPoint x="100" y="330" as="sourcePoint"/>
                        <Array as="points">
                            <mxPoint x="110" y="580"/>
                        </Array>
                    </mxGeometry>
                </mxCell>
                <mxCell id="bJMHT8rVgH3jV2KobR5U-130" value="KTDI Admin" style="shape=umlActor;verticalLabelPosition=bottom;verticalAlign=top;html=1;fillColor=#e51400;fontColor=#ffffff;strokeColor=#B20000;" parent="1" vertex="1">
                    <mxGeometry x="40" y="503" width="30" height="60" as="geometry"/>
                </mxCell>
                <mxCell id="bJMHT8rVgH3jV2KobR5U-131" value="KTDI Staff" style="shape=umlActor;verticalLabelPosition=bottom;verticalAlign=top;html=1;fillColor=#e3c800;fontColor=#FFFFFF;strokeColor=#B09500;" parent="1" vertex="1">
                    <mxGeometry x="40" y="840" width="30" height="60" as="geometry"/>
                </mxCell>
                <mxCell id="bJMHT8rVgH3jV2KobR5U-132" value="Student" style="shape=umlActor;verticalLabelPosition=bottom;verticalAlign=top;html=1;fillColor=#1ba1e2;fontColor=#ffffff;strokeColor=#006EAF;" parent="1" vertex="1">
                    <mxGeometry x="780" y="778" width="30" height="60" as="geometry"/>
                </mxCell>
                <mxCell id="bJMHT8rVgH3jV2KobR5U-134" value="" style="shape=folder;fontStyle=1;tabWidth=174;tabHeight=30;tabPosition=left;html=1;boundedLbl=1;" parent="1" vertex="1">
                    <mxGeometry x="265.24" y="60" width="340" height="180" as="geometry"/>
                </mxCell>
                <mxCell id="bJMHT8rVgH3jV2KobR5U-136" value="" style="ellipse;whiteSpace=wrap;html=1;fillColor=none;" parent="bJMHT8rVgH3jV2KobR5U-134" vertex="1">
                    <mxGeometry x="106.38" y="40" width="132.24" height="55" as="geometry"/>
                </mxCell>
                <mxCell id="bJMHT8rVgH3jV2KobR5U-146" value="UC01&lt;br&gt;User Sign in / Login(UTM ID)" style="text;html=1;strokeColor=none;fillColor=none;align=center;verticalAlign=middle;whiteSpace=wrap;rounded=0;" parent="bJMHT8rVgH3jV2KobR5U-134" vertex="1">
                    <mxGeometry x="128.88" y="55" width="87.24" height="20" as="geometry"/>
                </mxCell>
                <mxCell id="bJMHT8rVgH3jV2KobR5U-155" value="&amp;lt;&amp;lt;include&amp;gt;&amp;gt;" style="text;html=1;strokeColor=none;fillColor=none;align=center;verticalAlign=middle;whiteSpace=wrap;rounded=0;fontSize=11;rotation=0;" parent="bJMHT8rVgH3jV2KobR5U-134" vertex="1">
                    <mxGeometry x="184.12" y="95" width="60" height="30" as="geometry"/>
                </mxCell>
                <mxCell id="bJMHT8rVgH3jV2KobR5U-137" value="Authenication Module" style="text;html=1;strokeColor=none;fillColor=none;align=center;verticalAlign=middle;whiteSpace=wrap;rounded=0;" parent="1" vertex="1">
                    <mxGeometry x="259" y="60" width="186" height="30" as="geometry"/>
                </mxCell>
                <mxCell id="bJMHT8rVgH3jV2KobR5U-140" value="Report &amp;amp; Analytic Module" style="text;html=1;strokeColor=none;fillColor=none;align=center;verticalAlign=middle;whiteSpace=wrap;rounded=0;" parent="1" vertex="1">
                    <mxGeometry x="238.73999999999998" y="507" width="200" height="30" as="geometry"/>
                </mxCell>
                <mxCell id="bJMHT8rVgH3jV2KobR5U-141" value="" style="shape=folder;fontStyle=1;tabWidth=200;tabHeight=30;tabPosition=left;html=1;boundedLbl=1;" parent="1" vertex="1">
                    <mxGeometry x="240" y="820" width="400" height="300" as="geometry"/>
                </mxCell>
                <mxCell id="bJMHT8rVgH3jV2KobR5U-142" value="Room Management Module" style="text;html=1;strokeColor=none;fillColor=none;align=center;verticalAlign=middle;whiteSpace=wrap;rounded=0;" parent="1" vertex="1">
                    <mxGeometry x="239.99999999999994" y="820" width="200" height="30" as="geometry"/>
                </mxCell>
                <mxCell id="bJMHT8rVgH3jV2KobR5U-143" value="" style="shape=folder;fontStyle=1;tabWidth=200;tabHeight=30;tabPosition=left;html=1;boundedLbl=1;" parent="1" vertex="1">
                    <mxGeometry x="242.68" y="1400" width="400" height="170" as="geometry"/>
                </mxCell>
                <mxCell id="bJMHT8rVgH3jV2KobR5U-144" value="Payment Management Module" style="text;html=1;strokeColor=none;fillColor=none;align=center;verticalAlign=middle;whiteSpace=wrap;rounded=0;" parent="1" vertex="1">
                    <mxGeometry x="240.4199999999999" y="1400" width="200" height="30" as="geometry"/>
                </mxCell>
                <mxCell id="E0ZFKpVbwkk2b9CQsdlB-30" style="edgeStyle=none;html=1;entryX=0.5;entryY=0;entryDx=0;entryDy=0;dashed=1;" parent="1" target="bJMHT8rVgH3jV2KobR5U-150" edge="1">
                    <mxGeometry relative="1" as="geometry">
                        <mxPoint x="437.36" y="160" as="sourcePoint"/>
                    </mxGeometry>
                </mxCell>
                <mxCell id="bJMHT8rVgH3jV2KobR5U-150" value="" style="ellipse;whiteSpace=wrap;html=1;fillColor=none;movable=1;resizable=1;rotatable=1;deletable=1;editable=1;connectable=1;" parent="1" vertex="1">
                    <mxGeometry x="377.74" y="180" width="120" height="50" as="geometry"/>
                </mxCell>
                <mxCell id="bJMHT8rVgH3jV2KobR5U-151" value="UC02&lt;br&gt;Password setting" style="text;html=1;strokeColor=none;fillColor=none;align=center;verticalAlign=middle;whiteSpace=wrap;rounded=0;movable=1;resizable=1;rotatable=1;deletable=1;editable=1;connectable=1;" parent="1" vertex="1">
                    <mxGeometry x="402.12" y="190" width="70" height="30" as="geometry"/>
                </mxCell>
                <mxCell id="x79afCuYZmPgpUrkepex-24" style="edgeStyle=none;html=1;entryX=0;entryY=0;entryDx=0;entryDy=0;dashed=1;" edge="1" parent="1" source="bJMHT8rVgH3jV2KobR5U-154" target="bJMHT8rVgH3jV2KobR5U-171">
                    <mxGeometry relative="1" as="geometry"/>
                </mxCell>
                <mxCell id="x79afCuYZmPgpUrkepex-25" style="edgeStyle=none;html=1;entryX=1;entryY=0;entryDx=0;entryDy=0;dashed=1;" edge="1" parent="1" source="bJMHT8rVgH3jV2KobR5U-154" target="bJMHT8rVgH3jV2KobR5U-178">
                    <mxGeometry relative="1" as="geometry"/>
                </mxCell>
                <mxCell id="bJMHT8rVgH3jV2KobR5U-154" value="UC17&lt;br&gt;Make payments" style="ellipse;whiteSpace=wrap;html=1;fillColor=none;" parent="1" vertex="1">
                    <mxGeometry x="380.4299999999999" y="1440" width="120" height="50" as="geometry"/>
                </mxCell>
                <mxCell id="bJMHT8rVgH3jV2KobR5U-166" value="Room occupancy rate" style="ellipse;whiteSpace=wrap;html=1;fillColor=none;" parent="1" vertex="1">
                    <mxGeometry x="390.61" y="547" width="162.5" height="50" as="geometry"/>
                </mxCell>
                <mxCell id="bJMHT8rVgH3jV2KobR5U-169" value="UC10&lt;br&gt;Check in / out" style="ellipse;whiteSpace=wrap;html=1;" parent="1" vertex="1">
                    <mxGeometry x="390.92" y="995" width="107.51" height="45" as="geometry"/>
                </mxCell>
                <mxCell id="bJMHT8rVgH3jV2KobR5U-171" value="UC19&lt;br&gt;Payment receipts" style="ellipse;whiteSpace=wrap;html=1;fillColor=none;" parent="1" vertex="1">
                    <mxGeometry x="510.42999999999984" y="1511.25" width="110" height="50" as="geometry"/>
                </mxCell>
                <mxCell id="bJMHT8rVgH3jV2KobR5U-174" value="UC11&lt;br&gt;Maintenance request / tracking" style="ellipse;whiteSpace=wrap;html=1;" parent="1" vertex="1">
                    <mxGeometry x="383.04" y="1050" width="117.01" height="60" as="geometry"/>
                </mxCell>
                <mxCell id="bJMHT8rVgH3jV2KobR5U-175" value="Room maintenance report" style="ellipse;whiteSpace=wrap;html=1;fillColor=none;" parent="1" vertex="1">
                    <mxGeometry x="396.68" y="651" width="163.75" height="50" as="geometry"/>
                </mxCell>
                <mxCell id="bJMHT8rVgH3jV2KobR5U-178" value="UC20&lt;br&gt;Payment history" style="ellipse;whiteSpace=wrap;html=1;fillColor=none;" parent="1" vertex="1">
                    <mxGeometry x="268.1399999999999" y="1511.25" width="105" height="50" as="geometry"/>
                </mxCell>
                <mxCell id="bJMHT8rVgH3jV2KobR5U-182" value="Revenue report" style="ellipse;whiteSpace=wrap;html=1;fillColor=none;" parent="1" vertex="1">
                    <mxGeometry x="503.74" y="597" width="120" height="50" as="geometry"/>
                </mxCell>
                <mxCell id="7" style="edgeStyle=none;html=1;entryX=0;entryY=0.5;entryDx=0;entryDy=0;dashed=1;" parent="1" source="6" target="bJMHT8rVgH3jV2KobR5U-166" edge="1">
                    <mxGeometry relative="1" as="geometry"/>
                </mxCell>
                <mxCell id="8" style="edgeStyle=none;html=1;entryX=0;entryY=0.5;entryDx=0;entryDy=0;dashed=1;" parent="1" source="6" target="bJMHT8rVgH3jV2KobR5U-175" edge="1">
                    <mxGeometry relative="1" as="geometry"/>
                </mxCell>
                <mxCell id="9" style="edgeStyle=none;html=1;entryX=0;entryY=0.5;entryDx=0;entryDy=0;dashed=1;" parent="1" source="6" target="bJMHT8rVgH3jV2KobR5U-182" edge="1">
                    <mxGeometry relative="1" as="geometry"/>
                </mxCell>
                <mxCell id="E0ZFKpVbwkk2b9CQsdlB-41" style="edgeStyle=none;html=1;entryX=0.204;entryY=0.097;entryDx=0;entryDy=0;dashed=1;entryPerimeter=0;" parent="1" source="6" target="E0ZFKpVbwkk2b9CQsdlB-40" edge="1">
                    <mxGeometry relative="1" as="geometry"/>
                </mxCell>
                <mxCell id="6" value="UC06&lt;br&gt;Overview reports" style="ellipse;whiteSpace=wrap;html=1;" parent="1" vertex="1">
                    <mxGeometry x="255.85999999999999" y="597" width="107.5" height="45" as="geometry"/>
                </mxCell>
                <mxCell id="10" value="&amp;lt;&amp;lt;include&amp;gt;&amp;gt;" style="text;html=1;strokeColor=none;fillColor=none;align=center;verticalAlign=middle;whiteSpace=wrap;rounded=0;fontSize=11;rotation=-30;" parent="1" vertex="1">
                    <mxGeometry x="330.61" y="563" width="60" height="30" as="geometry"/>
                </mxCell>
                <mxCell id="11" value="&amp;lt;&amp;lt;include&amp;gt;&amp;gt;" style="text;html=1;strokeColor=none;fillColor=none;align=center;verticalAlign=middle;whiteSpace=wrap;rounded=0;fontSize=11;rotation=0;" parent="1" vertex="1">
                    <mxGeometry x="384.37" y="597" width="60" height="30" as="geometry"/>
                </mxCell>
                <mxCell id="12" value="&amp;lt;&amp;lt;include&amp;gt;&amp;gt;" style="text;html=1;strokeColor=none;fillColor=none;align=center;verticalAlign=middle;whiteSpace=wrap;rounded=0;fontSize=11;rotation=35;" parent="1" vertex="1">
                    <mxGeometry x="325.37" y="647" width="60" height="30" as="geometry"/>
                </mxCell>
                <mxCell id="18" value="UC08&lt;br&gt;Room changing / cancellation" style="ellipse;whiteSpace=wrap;html=1;" parent="1" vertex="1">
                    <mxGeometry x="385.19000000000005" y="860" width="113.12" height="60" as="geometry"/>
                </mxCell>
                <mxCell id="19" value="UC09&lt;br&gt;Electrical appliances registration" style="ellipse;whiteSpace=wrap;html=1;" parent="1" vertex="1">
                    <mxGeometry x="374.68" y="930" width="140" height="50" as="geometry"/>
                </mxCell>
                <mxCell id="E0ZFKpVbwkk2b9CQsdlB-31" style="edgeStyle=none;html=1;entryX=0.976;entryY=0.691;entryDx=0;entryDy=0;exitX=0;exitY=0.3333333333333333;exitDx=0;exitDy=0;exitPerimeter=0;entryPerimeter=0;" parent="1" source="bJMHT8rVgH3jV2KobR5U-132" target="bJMHT8rVgH3jV2KobR5U-136" edge="1">
                    <mxGeometry relative="1" as="geometry">
                        <mxPoint x="770" y="600" as="sourcePoint"/>
                        <Array as="points">
                            <mxPoint x="670" y="270"/>
                        </Array>
                    </mxGeometry>
                </mxCell>
                <mxCell id="E0ZFKpVbwkk2b9CQsdlB-32" style="edgeStyle=none;html=1;entryX=0;entryY=0.5;entryDx=0;entryDy=0;exitX=1;exitY=0.3333333333333333;exitDx=0;exitDy=0;exitPerimeter=0;" parent="1" source="bJMHT8rVgH3jV2KobR5U-130" target="bJMHT8rVgH3jV2KobR5U-136" edge="1">
                    <mxGeometry relative="1" as="geometry">
                        <mxPoint x="100" y="340" as="sourcePoint"/>
                        <Array as="points">
                            <mxPoint x="120" y="130"/>
                        </Array>
                    </mxGeometry>
                </mxCell>
                <mxCell id="E0ZFKpVbwkk2b9CQsdlB-40" value="UC07&lt;br&gt;Generate quota active report" style="ellipse;whiteSpace=wrap;html=1;fillColor=none;" parent="1" vertex="1">
                    <mxGeometry x="259" y="718" width="186.74" height="60" as="geometry"/>
                </mxCell>
                <mxCell id="E0ZFKpVbwkk2b9CQsdlB-43" style="edgeStyle=none;html=1;entryX=1;entryY=0.5;entryDx=0;entryDy=0;dashed=1;" parent="1" source="E0ZFKpVbwkk2b9CQsdlB-42" target="E0ZFKpVbwkk2b9CQsdlB-40" edge="1">
                    <mxGeometry relative="1" as="geometry"/>
                </mxCell>
                <mxCell id="E0ZFKpVbwkk2b9CQsdlB-42" value="UC06&lt;br&gt;Enter student college merits" style="ellipse;whiteSpace=wrap;html=1;fillColor=none;" parent="1" vertex="1">
                    <mxGeometry x="513.56" y="697" width="120" height="57" as="geometry"/>
                </mxCell>
                <mxCell id="E0ZFKpVbwkk2b9CQsdlB-59" value="&amp;lt;&amp;lt;include&amp;gt;&amp;gt;" style="text;html=1;strokeColor=none;fillColor=none;align=center;verticalAlign=middle;whiteSpace=wrap;rounded=0;fontSize=11;rotation=-80;" parent="1" vertex="1">
                    <mxGeometry x="262" y="661" width="60" height="30" as="geometry"/>
                </mxCell>
                <mxCell id="E0ZFKpVbwkk2b9CQsdlB-67" style="edgeStyle=none;html=1;entryX=1;entryY=0.5;entryDx=0;entryDy=0;exitX=0;exitY=0.3333333333333333;exitDx=0;exitDy=0;exitPerimeter=0;" parent="1" source="E0ZFKpVbwkk2b9CQsdlB-65" target="bJMHT8rVgH3jV2KobR5U-136" edge="1">
                    <mxGeometry relative="1" as="geometry">
                        <mxPoint x="740" y="310" as="sourcePoint"/>
                        <Array as="points">
                            <mxPoint x="720" y="130"/>
                        </Array>
                    </mxGeometry>
                </mxCell>
                <mxCell id="UlYFYkiMUmtQ9-Gsjq0C-30" style="edgeStyle=none;html=1;entryX=1;entryY=0.5;entryDx=0;entryDy=0;exitX=0;exitY=0.3333333333333333;exitDx=0;exitDy=0;exitPerimeter=0;" parent="1" source="E0ZFKpVbwkk2b9CQsdlB-65" target="bJMHT8rVgH3jV2KobR5U-150" edge="1">
                    <mxGeometry relative="1" as="geometry">
                        <Array as="points">
                            <mxPoint x="700" y="205"/>
                        </Array>
                    </mxGeometry>
                </mxCell>
                <mxCell id="UlYFYkiMUmtQ9-Gsjq0C-42" style="edgeStyle=none;html=1;entryX=1;entryY=0.5;entryDx=0;entryDy=0;exitX=0;exitY=0.3333333333333333;exitDx=0;exitDy=0;exitPerimeter=0;" parent="1" source="E0ZFKpVbwkk2b9CQsdlB-65" target="E0ZFKpVbwkk2b9CQsdlB-42" edge="1">
                    <mxGeometry relative="1" as="geometry">
                        <Array as="points">
                            <mxPoint x="710" y="720"/>
                        </Array>
                    </mxGeometry>
                </mxCell>
                <mxCell id="E0ZFKpVbwkk2b9CQsdlB-65" value="KTDI Fellow" style="shape=umlActor;verticalLabelPosition=bottom;verticalAlign=top;html=1;outlineConnect=0;fillColor=#6a00ff;fontColor=#ffffff;strokeColor=#3700CC;" parent="1" vertex="1">
                    <mxGeometry x="780" y="380" width="30" height="60" as="geometry"/>
                </mxCell>
                <mxCell id="E0ZFKpVbwkk2b9CQsdlB-74" style="edgeStyle=none;html=1;entryX=0.033;entryY=0.691;entryDx=0;entryDy=0;exitX=1;exitY=0.3333333333333333;exitDx=0;exitDy=0;exitPerimeter=0;entryPerimeter=0;" parent="1" source="bJMHT8rVgH3jV2KobR5U-131" target="bJMHT8rVgH3jV2KobR5U-136" edge="1">
                    <mxGeometry relative="1" as="geometry">
                        <mxPoint x="390" y="118.59644839638159" as="targetPoint"/>
                        <mxPoint x="90" y="640" as="sourcePoint"/>
                        <Array as="points">
                            <mxPoint x="180" y="300"/>
                        </Array>
                    </mxGeometry>
                </mxCell>
                <mxCell id="AR3hY_t0IXQOkz2zPapQ-29" value="&lt;span style=&quot;font-size: 14px;&quot;&gt;&lt;b&gt;STUDENT ACCOMMODATION SYSTEM IN KTDI&lt;/b&gt;&lt;/span&gt;" style="text;html=1;strokeColor=none;fillColor=none;align=center;verticalAlign=middle;whiteSpace=wrap;rounded=0;fontColor=#FFFFFF;" parent="1" vertex="1">
                    <mxGeometry x="240" y="20" width="400" height="30" as="geometry"/>
                </mxCell>
                <mxCell id="uFm_Vl3hLcKHGPN8OlWz-34" value="&amp;lt;&amp;lt;extend&amp;gt;&amp;gt;" style="text;html=1;strokeColor=none;fillColor=none;align=center;verticalAlign=middle;whiteSpace=wrap;rounded=0;fontSize=11;rotation=0;" parent="1" vertex="1">
                    <mxGeometry x="450.43" y="715" width="60" height="30" as="geometry"/>
                </mxCell>
                <mxCell id="UlYFYkiMUmtQ9-Gsjq0C-19" value="" style="shape=folder;fontStyle=1;tabWidth=204;tabHeight=30;tabPosition=left;html=1;boundedLbl=1;" parent="1" vertex="1">
                    <mxGeometry x="278.38" y="270" width="313.74" height="200" as="geometry"/>
                </mxCell>
                <mxCell id="UlYFYkiMUmtQ9-Gsjq0C-20" value="Centralised Dashboard Module" style="text;html=1;strokeColor=none;fillColor=none;align=center;verticalAlign=middle;whiteSpace=wrap;rounded=0;" parent="1" vertex="1">
                    <mxGeometry x="278.36999999999995" y="270" width="207.67" height="30" as="geometry"/>
                </mxCell>
                <mxCell id="UlYFYkiMUmtQ9-Gsjq0C-21" value="UC03&lt;br&gt;Update user information" style="ellipse;whiteSpace=wrap;html=1;" parent="1" vertex="1">
                    <mxGeometry x="377.06000000000006" y="310" width="128.45" height="60" as="geometry"/>
                </mxCell>
                <mxCell id="1xm52-uuKr4sskTgwOkE-45" style="edgeStyle=none;html=1;entryX=0;entryY=0.5;entryDx=0;entryDy=0;dashed=1;exitX=1;exitY=1;exitDx=0;exitDy=0;" edge="1" parent="1" source="UlYFYkiMUmtQ9-Gsjq0C-23" target="1xm52-uuKr4sskTgwOkE-43">
                    <mxGeometry relative="1" as="geometry"/>
                </mxCell>
                <mxCell id="UlYFYkiMUmtQ9-Gsjq0C-23" value="UC04&lt;br&gt;Update college Information" style="ellipse;whiteSpace=wrap;html=1;" parent="1" vertex="1">
                    <mxGeometry x="318.47" y="380" width="117.26" height="50" as="geometry"/>
                </mxCell>
                <mxCell id="UlYFYkiMUmtQ9-Gsjq0C-29" style="edgeStyle=none;html=1;entryX=0;entryY=0.5;entryDx=0;entryDy=0;exitX=1;exitY=0.3333333333333333;exitDx=0;exitDy=0;exitPerimeter=0;" parent="1" target="bJMHT8rVgH3jV2KobR5U-150" edge="1" source="bJMHT8rVgH3jV2KobR5U-130">
                    <mxGeometry relative="1" as="geometry">
                        <mxPoint x="100" y="330" as="sourcePoint"/>
                        <Array as="points">
                            <mxPoint x="150" y="210"/>
                        </Array>
                    </mxGeometry>
                </mxCell>
                <mxCell id="UlYFYkiMUmtQ9-Gsjq0C-31" style="edgeStyle=none;html=1;entryX=0.002;entryY=0.68;entryDx=0;entryDy=0;exitX=1;exitY=0.3333333333333333;exitDx=0;exitDy=0;exitPerimeter=0;entryPerimeter=0;" parent="1" target="bJMHT8rVgH3jV2KobR5U-150" edge="1" source="bJMHT8rVgH3jV2KobR5U-131">
                    <mxGeometry relative="1" as="geometry">
                        <mxPoint x="80" y="630" as="sourcePoint"/>
                        <Array as="points">
                            <mxPoint x="210" y="310"/>
                        </Array>
                    </mxGeometry>
                </mxCell>
                <mxCell id="UlYFYkiMUmtQ9-Gsjq0C-32" style="edgeStyle=none;html=1;entryX=0.969;entryY=0.68;entryDx=0;entryDy=0;exitX=0;exitY=0.3333333333333333;exitDx=0;exitDy=0;exitPerimeter=0;entryPerimeter=0;" parent="1" target="bJMHT8rVgH3jV2KobR5U-150" edge="1" source="bJMHT8rVgH3jV2KobR5U-132">
                    <mxGeometry relative="1" as="geometry">
                        <mxPoint x="780" y="590" as="sourcePoint"/>
                        <Array as="points">
                            <mxPoint x="640" y="300"/>
                        </Array>
                    </mxGeometry>
                </mxCell>
                <mxCell id="UlYFYkiMUmtQ9-Gsjq0C-33" style="edgeStyle=none;html=1;entryX=0;entryY=0.5;entryDx=0;entryDy=0;exitX=1;exitY=0.3333333333333333;exitDx=0;exitDy=0;exitPerimeter=0;" parent="1" target="UlYFYkiMUmtQ9-Gsjq0C-21" edge="1" source="bJMHT8rVgH3jV2KobR5U-130">
                    <mxGeometry relative="1" as="geometry">
                        <mxPoint x="100" y="330" as="sourcePoint"/>
                        <Array as="points">
                            <mxPoint x="150" y="350"/>
                        </Array>
                    </mxGeometry>
                </mxCell>
                <mxCell id="UlYFYkiMUmtQ9-Gsjq0C-34" style="edgeStyle=none;html=1;entryX=1;entryY=0.5;entryDx=0;entryDy=0;exitX=0;exitY=0.3333333333333333;exitDx=0;exitDy=0;exitPerimeter=0;" parent="1" source="E0ZFKpVbwkk2b9CQsdlB-65" target="UlYFYkiMUmtQ9-Gsjq0C-21" edge="1">
                    <mxGeometry relative="1" as="geometry">
                        <Array as="points">
                            <mxPoint x="720" y="350"/>
                        </Array>
                    </mxGeometry>
                </mxCell>
                <mxCell id="UlYFYkiMUmtQ9-Gsjq0C-35" style="edgeStyle=none;html=1;exitX=1;exitY=0.3333333333333333;exitDx=0;exitDy=0;exitPerimeter=0;entryX=-0.003;entryY=0.622;entryDx=0;entryDy=0;entryPerimeter=0;" parent="1" edge="1" target="UlYFYkiMUmtQ9-Gsjq0C-21" source="bJMHT8rVgH3jV2KobR5U-131">
                    <mxGeometry relative="1" as="geometry">
                        <mxPoint x="370" y="350" as="targetPoint"/>
                        <mxPoint x="80" y="630" as="sourcePoint"/>
                        <Array as="points">
                            <mxPoint x="240" y="410"/>
                        </Array>
                    </mxGeometry>
                </mxCell>
                <mxCell id="UlYFYkiMUmtQ9-Gsjq0C-36" style="edgeStyle=none;html=1;exitX=0;exitY=0.3333333333333333;exitDx=0;exitDy=0;exitPerimeter=0;" parent="1" source="bJMHT8rVgH3jV2KobR5U-132" edge="1">
                    <mxGeometry relative="1" as="geometry">
                        <mxPoint x="500" y="350" as="targetPoint"/>
                        <Array as="points">
                            <mxPoint x="650" y="450"/>
                        </Array>
                    </mxGeometry>
                </mxCell>
                <mxCell id="UlYFYkiMUmtQ9-Gsjq0C-37" style="edgeStyle=none;html=1;entryX=0;entryY=0.5;entryDx=0;entryDy=0;exitX=1;exitY=0.3333333333333333;exitDx=0;exitDy=0;exitPerimeter=0;" parent="1" source="bJMHT8rVgH3jV2KobR5U-130" target="UlYFYkiMUmtQ9-Gsjq0C-23" edge="1">
                    <mxGeometry relative="1" as="geometry">
                        <Array as="points">
                            <mxPoint x="140" y="430"/>
                        </Array>
                    </mxGeometry>
                </mxCell>
                <mxCell id="UlYFYkiMUmtQ9-Gsjq0C-38" style="edgeStyle=none;html=1;exitX=1;exitY=0.3333333333333333;exitDx=0;exitDy=0;exitPerimeter=0;entryX=0.019;entryY=0.68;entryDx=0;entryDy=0;entryPerimeter=0;" parent="1" source="bJMHT8rVgH3jV2KobR5U-131" edge="1" target="UlYFYkiMUmtQ9-Gsjq0C-23">
                    <mxGeometry relative="1" as="geometry">
                        <mxPoint x="370" y="430" as="targetPoint"/>
                        <mxPoint x="120" y="740" as="sourcePoint"/>
                        <Array as="points">
                            <mxPoint x="250" y="450"/>
                        </Array>
                    </mxGeometry>
                </mxCell>
                <mxCell id="UlYFYkiMUmtQ9-Gsjq0C-39" style="edgeStyle=none;html=1;entryX=0.965;entryY=0.311;entryDx=0;entryDy=0;exitX=0;exitY=0.3333333333333333;exitDx=0;exitDy=0;exitPerimeter=0;entryPerimeter=0;" parent="1" source="E0ZFKpVbwkk2b9CQsdlB-65" target="UlYFYkiMUmtQ9-Gsjq0C-23" edge="1">
                    <mxGeometry relative="1" as="geometry">
                        <Array as="points"/>
                    </mxGeometry>
                </mxCell>
                <mxCell id="UlYFYkiMUmtQ9-Gsjq0C-43" value="" style="shape=folder;fontStyle=1;tabWidth=200;tabHeight=30;tabPosition=left;html=1;boundedLbl=1;" parent="1" vertex="1">
                    <mxGeometry x="230.84" y="1150" width="420.32" height="220" as="geometry"/>
                </mxCell>
                <mxCell id="1xm52-uuKr4sskTgwOkE-37" style="edgeStyle=none;html=1;entryX=1;entryY=0.5;entryDx=0;entryDy=0;dashed=1;exitX=0;exitY=0.5;exitDx=0;exitDy=0;" edge="1" parent="1" source="UlYFYkiMUmtQ9-Gsjq0C-45" target="UlYFYkiMUmtQ9-Gsjq0C-47">
                    <mxGeometry relative="1" as="geometry"/>
                </mxCell>
                <mxCell id="UlYFYkiMUmtQ9-Gsjq0C-45" value="UC14&lt;br&gt;Real time room availability" style="ellipse;whiteSpace=wrap;html=1;" parent="1" vertex="1">
                    <mxGeometry x="512.5600000000001" y="1287" width="120" height="55" as="geometry"/>
                </mxCell>
                <mxCell id="1xm52-uuKr4sskTgwOkE-38" style="edgeStyle=none;html=1;exitX=0.5;exitY=0;exitDx=0;exitDy=0;entryX=0.557;entryY=1.013;entryDx=0;entryDy=0;dashed=1;entryPerimeter=0;" edge="1" parent="1" source="UlYFYkiMUmtQ9-Gsjq0C-47" target="UlYFYkiMUmtQ9-Gsjq0C-48">
                    <mxGeometry relative="1" as="geometry"/>
                </mxCell>
                <mxCell id="UlYFYkiMUmtQ9-Gsjq0C-47" value="UC15&lt;br&gt;Room preferences" style="ellipse;whiteSpace=wrap;html=1;" parent="1" vertex="1">
                    <mxGeometry x="270.36000000000007" y="1305.5" width="115.01" height="55" as="geometry"/>
                </mxCell>
                <mxCell id="UlYFYkiMUmtQ9-Gsjq0C-48" value="UC16&lt;br&gt;Room allocation" style="ellipse;whiteSpace=wrap;html=1;" parent="1" vertex="1">
                    <mxGeometry x="258.49" y="1192.5" width="121.26" height="50" as="geometry"/>
                </mxCell>
                <mxCell id="x79afCuYZmPgpUrkepex-20" style="edgeStyle=none;html=1;entryX=1;entryY=0;entryDx=0;entryDy=0;dashed=1;" edge="1" parent="1" source="UlYFYkiMUmtQ9-Gsjq0C-50" target="x79afCuYZmPgpUrkepex-19">
                    <mxGeometry relative="1" as="geometry"/>
                </mxCell>
                <mxCell id="UlYFYkiMUmtQ9-Gsjq0C-50" value="UC13&lt;br&gt;Hostel room application" style="ellipse;whiteSpace=wrap;html=1;" parent="1" vertex="1">
                    <mxGeometry x="518.6599999999997" y="1187.5" width="116.24" height="55" as="geometry"/>
                </mxCell>
                <mxCell id="UlYFYkiMUmtQ9-Gsjq0C-51" value="Room Application Module" style="text;html=1;strokeColor=none;fillColor=none;align=center;verticalAlign=middle;whiteSpace=wrap;rounded=0;" parent="1" vertex="1">
                    <mxGeometry x="230.83999999999995" y="1150" width="200" height="30" as="geometry"/>
                </mxCell>
                <mxCell id="vXoiotKaJcH3RGOQkRBn-19" style="edgeStyle=none;html=1;entryX=1;entryY=0.5;entryDx=0;entryDy=0;exitX=0;exitY=0.3333333333333333;exitDx=0;exitDy=0;exitPerimeter=0;" edge="1" parent="1" source="bJMHT8rVgH3jV2KobR5U-132" target="18">
                    <mxGeometry relative="1" as="geometry">
                        <Array as="points"/>
                    </mxGeometry>
                </mxCell>
                <mxCell id="1xm52-uuKr4sskTgwOkE-19" style="edgeStyle=none;html=1;entryX=1;entryY=0.5;entryDx=0;entryDy=0;exitX=0;exitY=0.3333333333333333;exitDx=0;exitDy=0;exitPerimeter=0;" edge="1" parent="1" source="bJMHT8rVgH3jV2KobR5U-132" target="19">
                    <mxGeometry relative="1" as="geometry">
                        <mxPoint x="780" y="590" as="sourcePoint"/>
                        <Array as="points"/>
                    </mxGeometry>
                </mxCell>
                <mxCell id="1xm52-uuKr4sskTgwOkE-20" style="edgeStyle=none;html=1;entryX=0;entryY=0.5;entryDx=0;entryDy=0;exitX=1;exitY=0.3333333333333333;exitDx=0;exitDy=0;exitPerimeter=0;" edge="1" parent="1" source="bJMHT8rVgH3jV2KobR5U-131" target="18">
                    <mxGeometry relative="1" as="geometry">
                        <Array as="points"/>
                    </mxGeometry>
                </mxCell>
                <mxCell id="1xm52-uuKr4sskTgwOkE-21" style="edgeStyle=none;html=1;entryX=0;entryY=0.5;entryDx=0;entryDy=0;exitX=1;exitY=0.3333333333333333;exitDx=0;exitDy=0;exitPerimeter=0;" edge="1" parent="1" source="bJMHT8rVgH3jV2KobR5U-131" target="19">
                    <mxGeometry relative="1" as="geometry">
                        <Array as="points">
                            <mxPoint x="150" y="880"/>
                        </Array>
                    </mxGeometry>
                </mxCell>
                <mxCell id="1xm52-uuKr4sskTgwOkE-22" style="edgeStyle=none;html=1;entryX=0;entryY=0.5;entryDx=0;entryDy=0;exitX=1;exitY=0.3333333333333333;exitDx=0;exitDy=0;exitPerimeter=0;" edge="1" parent="1" source="bJMHT8rVgH3jV2KobR5U-131" target="bJMHT8rVgH3jV2KobR5U-169">
                    <mxGeometry relative="1" as="geometry">
                        <Array as="points">
                            <mxPoint x="140" y="890"/>
                        </Array>
                    </mxGeometry>
                </mxCell>
                <mxCell id="1xm52-uuKr4sskTgwOkE-23" style="edgeStyle=none;html=1;entryX=0;entryY=0.5;entryDx=0;entryDy=0;exitX=1;exitY=0.3333333333333333;exitDx=0;exitDy=0;exitPerimeter=0;" edge="1" parent="1" source="bJMHT8rVgH3jV2KobR5U-131" target="bJMHT8rVgH3jV2KobR5U-174">
                    <mxGeometry relative="1" as="geometry">
                        <mxPoint x="80" y="630" as="sourcePoint"/>
                        <Array as="points">
                            <mxPoint x="130" y="930"/>
                        </Array>
                    </mxGeometry>
                </mxCell>
                <mxCell id="1xm52-uuKr4sskTgwOkE-24" style="edgeStyle=none;html=1;entryX=1;entryY=0.5;entryDx=0;entryDy=0;exitX=0;exitY=0.3333333333333333;exitDx=0;exitDy=0;exitPerimeter=0;" edge="1" parent="1" source="bJMHT8rVgH3jV2KobR5U-132" target="bJMHT8rVgH3jV2KobR5U-169">
                    <mxGeometry relative="1" as="geometry">
                        <Array as="points">
                            <mxPoint x="730" y="860"/>
                        </Array>
                    </mxGeometry>
                </mxCell>
                <mxCell id="1xm52-uuKr4sskTgwOkE-25" style="edgeStyle=none;html=1;entryX=0.988;entryY=0.633;entryDx=0;entryDy=0;entryPerimeter=0;exitX=0;exitY=0.3333333333333333;exitDx=0;exitDy=0;exitPerimeter=0;" edge="1" parent="1" source="bJMHT8rVgH3jV2KobR5U-132" target="bJMHT8rVgH3jV2KobR5U-174">
                    <mxGeometry relative="1" as="geometry">
                        <mxPoint x="780" y="730" as="sourcePoint"/>
                        <Array as="points">
                            <mxPoint x="740" y="870"/>
                        </Array>
                    </mxGeometry>
                </mxCell>
                <mxCell id="1xm52-uuKr4sskTgwOkE-26" style="edgeStyle=none;html=1;entryX=0;entryY=0.5;entryDx=0;entryDy=0;exitX=1;exitY=0.3333333333333333;exitDx=0;exitDy=0;exitPerimeter=0;" edge="1" parent="1" source="bJMHT8rVgH3jV2KobR5U-130" target="UlYFYkiMUmtQ9-Gsjq0C-48">
                    <mxGeometry relative="1" as="geometry">
                        <Array as="points">
                            <mxPoint x="180" y="1210"/>
                        </Array>
                    </mxGeometry>
                </mxCell>
                <mxCell id="1xm52-uuKr4sskTgwOkE-27" style="edgeStyle=none;html=1;entryX=1;entryY=0.5;entryDx=0;entryDy=0;exitX=0;exitY=0.3333333333333333;exitDx=0;exitDy=0;exitPerimeter=0;" edge="1" parent="1" source="bJMHT8rVgH3jV2KobR5U-132" target="UlYFYkiMUmtQ9-Gsjq0C-50">
                    <mxGeometry relative="1" as="geometry">
                        <Array as="points">
                            <mxPoint x="680" y="1170"/>
                        </Array>
                    </mxGeometry>
                </mxCell>
                <mxCell id="1xm52-uuKr4sskTgwOkE-28" style="edgeStyle=none;html=1;entryX=1;entryY=0.5;entryDx=0;entryDy=0;exitX=0;exitY=0.3333333333333333;exitDx=0;exitDy=0;exitPerimeter=0;" edge="1" parent="1" source="bJMHT8rVgH3jV2KobR5U-132" target="UlYFYkiMUmtQ9-Gsjq0C-45">
                    <mxGeometry relative="1" as="geometry">
                        <Array as="points">
                            <mxPoint x="670" y="1285"/>
                        </Array>
                    </mxGeometry>
                </mxCell>
                <mxCell id="1xm52-uuKr4sskTgwOkE-29" style="edgeStyle=none;html=1;exitX=0;exitY=0.3333333333333333;exitDx=0;exitDy=0;exitPerimeter=0;entryX=1;entryY=1;entryDx=0;entryDy=0;" edge="1" parent="1" source="bJMHT8rVgH3jV2KobR5U-132" target="UlYFYkiMUmtQ9-Gsjq0C-47">
                    <mxGeometry relative="1" as="geometry">
                        <Array as="points">
                            <mxPoint x="680" y="1347"/>
                        </Array>
                    </mxGeometry>
                </mxCell>
                <mxCell id="1xm52-uuKr4sskTgwOkE-30" style="edgeStyle=none;html=1;entryX=1;entryY=0.5;entryDx=0;entryDy=0;exitX=0;exitY=0.3333333333333333;exitDx=0;exitDy=0;exitPerimeter=0;" edge="1" parent="1" source="bJMHT8rVgH3jV2KobR5U-132" target="bJMHT8rVgH3jV2KobR5U-154">
                    <mxGeometry relative="1" as="geometry">
                        <Array as="points">
                            <mxPoint x="690" y="1465"/>
                        </Array>
                    </mxGeometry>
                </mxCell>
                <mxCell id="1xm52-uuKr4sskTgwOkE-33" style="edgeStyle=none;html=1;entryX=1;entryY=0.5;entryDx=0;entryDy=0;exitX=0;exitY=0.3333333333333333;exitDx=0;exitDy=0;exitPerimeter=0;" edge="1" parent="1" source="bJMHT8rVgH3jV2KobR5U-132" target="bJMHT8rVgH3jV2KobR5U-171">
                    <mxGeometry relative="1" as="geometry">
                        <Array as="points">
                            <mxPoint x="720" y="1536"/>
                        </Array>
                    </mxGeometry>
                </mxCell>
                <mxCell id="1xm52-uuKr4sskTgwOkE-35" style="edgeStyle=none;html=1;entryX=0;entryY=0.5;entryDx=0;entryDy=0;exitX=1;exitY=0.3333333333333333;exitDx=0;exitDy=0;exitPerimeter=0;" edge="1" parent="1" source="bJMHT8rVgH3jV2KobR5U-131" target="bJMHT8rVgH3jV2KobR5U-178">
                    <mxGeometry relative="1" as="geometry">
                        <Array as="points">
                            <mxPoint x="140" y="1536"/>
                        </Array>
                    </mxGeometry>
                </mxCell>
                <mxCell id="1xm52-uuKr4sskTgwOkE-39" value="&amp;lt;&amp;lt;extend&amp;gt;&amp;gt;" style="text;html=1;strokeColor=none;fillColor=none;align=center;verticalAlign=middle;whiteSpace=wrap;rounded=0;fontSize=11;rotation=0;" vertex="1" parent="1">
                    <mxGeometry x="265.37" y="1270" width="60" height="30" as="geometry"/>
                </mxCell>
                <mxCell id="1xm52-uuKr4sskTgwOkE-40" value="&amp;lt;&amp;lt;extend&amp;gt;&amp;gt;" style="text;html=1;strokeColor=none;fillColor=none;align=center;verticalAlign=middle;whiteSpace=wrap;rounded=0;fontSize=11;rotation=0;" vertex="1" parent="1">
                    <mxGeometry x="391.91999999999996" y="1305.5" width="60" height="30" as="geometry"/>
                </mxCell>
                <mxCell id="1xm52-uuKr4sskTgwOkE-41" value="&amp;lt;&amp;lt;extend&amp;gt;&amp;gt;" style="text;html=1;strokeColor=none;fillColor=none;align=center;verticalAlign=middle;whiteSpace=wrap;rounded=0;fontSize=11;rotation=0;" vertex="1" parent="1">
                    <mxGeometry x="453.56" y="1204.5" width="60" height="30" as="geometry"/>
                </mxCell>
                <mxCell id="1xm52-uuKr4sskTgwOkE-42" value="&amp;lt;&amp;lt;extend&amp;gt;&amp;gt;" style="text;html=1;strokeColor=none;fillColor=none;align=center;verticalAlign=middle;whiteSpace=wrap;rounded=0;fontSize=11;rotation=0;" vertex="1" parent="1">
                    <mxGeometry x="324.36999999999995" y="1481.25" width="60" height="30" as="geometry"/>
                </mxCell>
                <mxCell id="1xm52-uuKr4sskTgwOkE-43" value="UC05&lt;br&gt;Overview college information" style="ellipse;whiteSpace=wrap;html=1;" vertex="1" parent="1">
                    <mxGeometry x="457.50000000000006" y="414" width="117.26" height="50" as="geometry"/>
                </mxCell>
                <mxCell id="1xm52-uuKr4sskTgwOkE-44" style="edgeStyle=none;html=1;entryX=1;entryY=0.5;entryDx=0;entryDy=0;exitX=0;exitY=0.3333333333333333;exitDx=0;exitDy=0;exitPerimeter=0;" edge="1" parent="1" source="bJMHT8rVgH3jV2KobR5U-132" target="1xm52-uuKr4sskTgwOkE-43">
                    <mxGeometry relative="1" as="geometry">
                        <Array as="points">
                            <mxPoint x="630" y="470"/>
                        </Array>
                    </mxGeometry>
                </mxCell>
                <mxCell id="1xm52-uuKr4sskTgwOkE-46" value="&amp;lt;&amp;lt;extend&amp;gt;&amp;gt;" style="text;html=1;strokeColor=none;fillColor=none;align=center;verticalAlign=middle;whiteSpace=wrap;rounded=0;fontSize=11;rotation=0;" vertex="1" parent="1">
                    <mxGeometry x="380.7300000000001" y="424" width="60" height="30" as="geometry"/>
                </mxCell>
                <mxCell id="x79afCuYZmPgpUrkepex-22" style="edgeStyle=none;html=1;entryX=0;entryY=0;entryDx=0;entryDy=0;dashed=1;exitX=1;exitY=1;exitDx=0;exitDy=0;" edge="1" parent="1" source="x79afCuYZmPgpUrkepex-19" target="UlYFYkiMUmtQ9-Gsjq0C-45">
                    <mxGeometry relative="1" as="geometry"/>
                </mxCell>
                <mxCell id="x79afCuYZmPgpUrkepex-19" value="UC&lt;br&gt;Application approvement" style="ellipse;whiteSpace=wrap;html=1;" vertex="1" parent="1">
                    <mxGeometry x="374.14" y="1230" width="121.26" height="50" as="geometry"/>
                </mxCell>
                <mxCell id="x79afCuYZmPgpUrkepex-21" style="edgeStyle=none;html=1;entryX=0;entryY=0.5;entryDx=0;entryDy=0;exitX=1;exitY=0.3333333333333333;exitDx=0;exitDy=0;exitPerimeter=0;" edge="1" parent="1" source="bJMHT8rVgH3jV2KobR5U-130" target="x79afCuYZmPgpUrkepex-19">
                    <mxGeometry relative="1" as="geometry">
                        <Array as="points">
                            <mxPoint x="160" y="1255"/>
                        </Array>
                    </mxGeometry>
                </mxCell>
                <mxCell id="x79afCuYZmPgpUrkepex-23" value="&amp;lt;&amp;lt;extend&amp;gt;&amp;gt;" style="text;html=1;strokeColor=none;fillColor=none;align=center;verticalAlign=middle;whiteSpace=wrap;rounded=0;fontSize=11;rotation=0;" vertex="1" parent="1">
                    <mxGeometry x="504.74" y="1268" width="60" height="30" as="geometry"/>
                </mxCell>
                <mxCell id="x79afCuYZmPgpUrkepex-26" value="&amp;lt;&amp;lt;extend&amp;gt;&amp;gt;" style="text;html=1;strokeColor=none;fillColor=none;align=center;verticalAlign=middle;whiteSpace=wrap;rounded=0;fontSize=11;rotation=0;" vertex="1" parent="1">
                    <mxGeometry x="500.42999999999995" y="1481.25" width="60" height="30" as="geometry"/>
                </mxCell>
                <mxCell id="x79afCuYZmPgpUrkepex-29" style="edgeStyle=none;html=1;entryX=1;entryY=1;entryDx=0;entryDy=0;exitX=0;exitY=0.3333333333333333;exitDx=0;exitDy=0;exitPerimeter=0;" edge="1" parent="1" source="E0ZFKpVbwkk2b9CQsdlB-65" target="E0ZFKpVbwkk2b9CQsdlB-40">
                    <mxGeometry relative="1" as="geometry">
                        <Array as="points">
                            <mxPoint x="730" y="769"/>
                        </Array>
                    </mxGeometry>
                </mxCell>
            </root>
        </mxGraphModel>
    </diagram>
    <diagram id="rMF2I0FMHV4U05aj5x2J" name="sequence_diagram">
        <mxGraphModel dx="986" dy="440" grid="1" gridSize="10" guides="1" tooltips="1" connect="1" arrows="1" fold="1" page="1" pageScale="1" pageWidth="850" pageHeight="1100" math="0" shadow="0">
            <root>
                <mxCell id="0"/>
                <mxCell id="1" parent="0"/>
                <mxCell id="S5-y5zS6l2NAs_fPD0nN-1" value="Student" style="shape=umlActor;verticalLabelPosition=bottom;verticalAlign=top;html=1;fillColor=#1ba1e2;fontColor=#ffffff;strokeColor=#006EAF;" parent="1" vertex="1">
                    <mxGeometry x="40" y="40" width="30" height="60" as="geometry"/>
                </mxCell>
                <mxCell id="S5-y5zS6l2NAs_fPD0nN-2" value="Admin&lt;span style=&quot;color: rgba(0, 0, 0, 0); font-family: monospace; font-size: 0px; text-align: start;&quot;&gt;%3CmxGraphModel%3E%3Croot%3E%3CmxCell%20id%3D%220%22%2F%3E%3CmxCell%20id%3D%221%22%20parent%3D%220%22%2F%3E%3CmxCell%20id%3D%222%22%20value%3D%22Student%22%20style%3D%22shape%3DumlActor%3BverticalLabelPosition%3Dbottom%3BverticalAlign%3Dtop%3Bhtml%3D1%3B%22%20vertex%3D%221%22%20parent%3D%221%22%3E%3CmxGeometry%20x%3D%2230%22%20y%3D%2230%22%20width%3D%2230%22%20height%3D%2260%22%20as%3D%22geometry%22%2F%3E%3C%2FmxCell%3E%3C%2Froot%3E%3C%2FmxGraphModel%3E&lt;/span&gt;" style="shape=umlActor;verticalLabelPosition=bottom;verticalAlign=top;html=1;fillColor=#e51400;fontColor=#ffffff;strokeColor=#B20000;" parent="1" vertex="1">
                    <mxGeometry x="160" y="40" width="30" height="60" as="geometry"/>
                </mxCell>
                <mxCell id="S5-y5zS6l2NAs_fPD0nN-3" value="Staff" style="shape=umlActor;verticalLabelPosition=bottom;verticalAlign=top;html=1;fillColor=#e3c800;fontColor=#000000;strokeColor=#B09500;" parent="1" vertex="1">
                    <mxGeometry x="210" y="40" width="30" height="60" as="geometry"/>
                </mxCell>
                <mxCell id="S5-y5zS6l2NAs_fPD0nN-4" value="Felow" style="shape=umlActor;verticalLabelPosition=bottom;verticalAlign=top;html=1;fillColor=#6a00ff;fontColor=#ffffff;strokeColor=#3700CC;" parent="1" vertex="1">
                    <mxGeometry x="100" y="40" width="30" height="60" as="geometry"/>
                </mxCell>
                <mxCell id="S5-y5zS6l2NAs_fPD0nN-5" value="Student" style="shape=umlActor;verticalLabelPosition=bottom;verticalAlign=top;html=1;fillColor=#1ba1e2;fontColor=#ffffff;strokeColor=#006EAF;" parent="1" vertex="1">
                    <mxGeometry x="40" y="990" width="30" height="60" as="geometry"/>
                </mxCell>
                <mxCell id="S5-y5zS6l2NAs_fPD0nN-6" value="Admin&lt;span style=&quot;color: rgba(0, 0, 0, 0); font-family: monospace; font-size: 0px; text-align: start;&quot;&gt;%3CmxGraphModel%3E%3Croot%3E%3CmxCell%20id%3D%220%22%2F%3E%3CmxCell%20id%3D%221%22%20parent%3D%220%22%2F%3E%3CmxCell%20id%3D%222%22%20value%3D%22Student%22%20style%3D%22shape%3DumlActor%3BverticalLabelPosition%3Dbottom%3BverticalAlign%3Dtop%3Bhtml%3D1%3B%22%20vertex%3D%221%22%20parent%3D%221%22%3E%3CmxGeometry%20x%3D%2230%22%20y%3D%2230%22%20width%3D%2230%22%20height%3D%2260%22%20as%3D%22geometry%22%2F%3E%3C%2FmxCell%3E%3C%2Froot%3E%3C%2FmxGraphModel%3E&lt;/span&gt;" style="shape=umlActor;verticalLabelPosition=bottom;verticalAlign=top;html=1;fillColor=#e51400;fontColor=#ffffff;strokeColor=#B20000;" parent="1" vertex="1">
                    <mxGeometry x="159" y="990" width="30" height="60" as="geometry"/>
                </mxCell>
                <mxCell id="S5-y5zS6l2NAs_fPD0nN-7" value="Staff" style="shape=umlActor;verticalLabelPosition=bottom;verticalAlign=top;html=1;fillColor=#e3c800;fontColor=#FFFFFF;strokeColor=#B09500;" parent="1" vertex="1">
                    <mxGeometry x="209" y="990" width="30" height="60" as="geometry"/>
                </mxCell>
                <mxCell id="S5-y5zS6l2NAs_fPD0nN-8" value="Felow" style="shape=umlActor;verticalLabelPosition=bottom;verticalAlign=top;html=1;fillColor=#6a00ff;fontColor=#ffffff;strokeColor=#3700CC;" parent="1" vertex="1">
                    <mxGeometry x="100" y="990" width="30" height="60" as="geometry"/>
                </mxCell>
                <mxCell id="S5-y5zS6l2NAs_fPD0nN-9" value="" style="rounded=0;whiteSpace=wrap;html=1;" parent="1" vertex="1">
                    <mxGeometry x="52.5" y="160" width="5" height="120" as="geometry"/>
                </mxCell>
                <mxCell id="S5-y5zS6l2NAs_fPD0nN-10" value="Authentication Subsystem" style="rounded=0;whiteSpace=wrap;html=1;shadow=0;" parent="1" vertex="1">
                    <mxGeometry x="290" y="70" width="160" height="30" as="geometry"/>
                </mxCell>
                <mxCell id="S5-y5zS6l2NAs_fPD0nN-11" value="Report &amp;amp; Analytic Subsystem" style="rounded=0;whiteSpace=wrap;html=1;shadow=0;" parent="1" vertex="1">
                    <mxGeometry x="900" y="70" width="160" height="30" as="geometry"/>
                </mxCell>
                <mxCell id="S5-y5zS6l2NAs_fPD0nN-12" value="Payment Management Subsystem" style="rounded=0;whiteSpace=wrap;html=1;shadow=0;" parent="1" vertex="1">
                    <mxGeometry x="690" y="70" width="190" height="30" as="geometry"/>
                </mxCell>
                <mxCell id="S5-y5zS6l2NAs_fPD0nN-13" value="Room Management Subsystem" style="rounded=0;whiteSpace=wrap;html=1;shadow=0;" parent="1" vertex="1">
                    <mxGeometry x="480" y="70" width="190" height="30" as="geometry"/>
                </mxCell>
                <mxCell id="S5-y5zS6l2NAs_fPD0nN-14" value="" style="endArrow=classic;html=1;endSize=4;startSize=4;" parent="1" edge="1">
                    <mxGeometry width="50" height="50" relative="1" as="geometry">
                        <mxPoint x="57.5" y="165" as="sourcePoint"/>
                        <mxPoint x="370" y="165" as="targetPoint"/>
                    </mxGeometry>
                </mxCell>
                <mxCell id="S5-y5zS6l2NAs_fPD0nN-15" value="Login as student" style="text;html=1;align=center;verticalAlign=middle;resizable=0;points=[];autosize=1;strokeColor=none;fillColor=none;" parent="1" vertex="1">
                    <mxGeometry x="259.5" y="140" width="110" height="30" as="geometry"/>
                </mxCell>
                <mxCell id="S5-y5zS6l2NAs_fPD0nN-16" value="" style="edgeStyle=none;html=1;entryX=0.5;entryY=0;entryDx=0;entryDy=0;dashed=1;dashPattern=8 8;endArrow=none;endFill=0;startArrow=none;" parent="1" source="S5-y5zS6l2NAs_fPD0nN-19" edge="1">
                    <mxGeometry relative="1" as="geometry">
                        <mxPoint x="369.40999999999997" y="100" as="sourcePoint"/>
                        <mxPoint x="369.4099999999996" y="180" as="targetPoint"/>
                    </mxGeometry>
                </mxCell>
                <mxCell id="S5-y5zS6l2NAs_fPD0nN-17" value="" style="edgeStyle=none;html=1;dashed=1;dashPattern=8 8;endArrow=none;endFill=0;" parent="1" source="S5-y5zS6l2NAs_fPD0nN-1" edge="1">
                    <mxGeometry relative="1" as="geometry">
                        <mxPoint x="54.40999999999997" y="110" as="sourcePoint"/>
                        <mxPoint x="55" y="160" as="targetPoint"/>
                    </mxGeometry>
                </mxCell>
                <mxCell id="S5-y5zS6l2NAs_fPD0nN-18" value="" style="edgeStyle=none;html=1;entryX=0.5;entryY=0;entryDx=0;entryDy=0;dashed=1;dashPattern=8 8;endArrow=none;endFill=0;" parent="1" edge="1">
                    <mxGeometry relative="1" as="geometry">
                        <mxPoint x="371.40999999999985" y="100" as="sourcePoint"/>
                        <mxPoint x="371.9999999999998" y="163.9999999999999" as="targetPoint"/>
                    </mxGeometry>
                </mxCell>
                <mxCell id="S5-y5zS6l2NAs_fPD0nN-19" value="" style="rounded=0;whiteSpace=wrap;html=1;" parent="1" vertex="1">
                    <mxGeometry x="369.5" y="163" width="5" height="40" as="geometry"/>
                </mxCell>
                <mxCell id="S5-y5zS6l2NAs_fPD0nN-20" value="" style="edgeStyle=none;html=1;entryX=0.5;entryY=0;entryDx=0;entryDy=0;dashed=1;dashPattern=8 8;endArrow=none;endFill=0;" parent="1" target="S5-y5zS6l2NAs_fPD0nN-21" edge="1">
                    <mxGeometry relative="1" as="geometry">
                        <mxPoint x="571.0000000000002" y="103" as="sourcePoint"/>
                        <mxPoint x="572.59" y="166.9999999999999" as="targetPoint"/>
                    </mxGeometry>
                </mxCell>
                <mxCell id="S5-y5zS6l2NAs_fPD0nN-21" value="" style="rounded=0;whiteSpace=wrap;html=1;" parent="1" vertex="1">
                    <mxGeometry x="568" y="203" width="5" height="40" as="geometry"/>
                </mxCell>
                <mxCell id="S5-y5zS6l2NAs_fPD0nN-22" value="" style="endArrow=classic;html=1;endSize=4;startSize=4;entryX=0;entryY=0;entryDx=0;entryDy=0;" parent="1" target="S5-y5zS6l2NAs_fPD0nN-21" edge="1">
                    <mxGeometry width="50" height="50" relative="1" as="geometry">
                        <mxPoint x="374.4999999999998" y="203" as="sourcePoint"/>
                        <mxPoint x="687" y="203" as="targetPoint"/>
                    </mxGeometry>
                </mxCell>
                <mxCell id="S5-y5zS6l2NAs_fPD0nN-23" value="" style="edgeStyle=none;html=1;dashed=1;dashPattern=8 8;endArrow=none;endFill=0;exitX=0.419;exitY=1.082;exitDx=0;exitDy=0;exitPerimeter=0;entryX=0.5;entryY=0;entryDx=0;entryDy=0;" parent="1" source="S5-y5zS6l2NAs_fPD0nN-12" target="S5-y5zS6l2NAs_fPD0nN-26" edge="1">
                    <mxGeometry relative="1" as="geometry">
                        <mxPoint x="769.5" y="140" as="sourcePoint"/>
                        <mxPoint x="800" y="210" as="targetPoint"/>
                    </mxGeometry>
                </mxCell>
                <mxCell id="S5-y5zS6l2NAs_fPD0nN-24" value="" style="rounded=0;whiteSpace=wrap;html=1;" parent="1" vertex="1">
                    <mxGeometry x="766.5" y="240" width="3.5" height="40" as="geometry"/>
                </mxCell>
                <mxCell id="S5-y5zS6l2NAs_fPD0nN-25" value="" style="endArrow=classic;html=1;endSize=4;startSize=4;entryX=0;entryY=0;entryDx=0;entryDy=0;" parent="1" target="S5-y5zS6l2NAs_fPD0nN-24" edge="1">
                    <mxGeometry width="50" height="50" relative="1" as="geometry">
                        <mxPoint x="573" y="240" as="sourcePoint"/>
                        <mxPoint x="885.5" y="240" as="targetPoint"/>
                    </mxGeometry>
                </mxCell>
                <mxCell id="S5-y5zS6l2NAs_fPD0nN-26" value="" style="rounded=0;whiteSpace=wrap;html=1;" parent="1" vertex="1">
                    <mxGeometry x="766.5" y="240" width="5" height="40" as="geometry"/>
                </mxCell>
                <mxCell id="S5-y5zS6l2NAs_fPD0nN-27" value="" style="edgeStyle=none;html=1;dashed=1;dashPattern=8 8;endArrow=none;endFill=0;exitX=0.419;exitY=1.082;exitDx=0;exitDy=0;exitPerimeter=0;" parent="1" edge="1">
                    <mxGeometry relative="1" as="geometry">
                        <mxPoint x="980.6099999999997" y="100" as="sourcePoint"/>
                        <mxPoint x="980" y="350" as="targetPoint"/>
                    </mxGeometry>
                </mxCell>
                <mxCell id="S5-y5zS6l2NAs_fPD0nN-28" value="" style="rounded=0;whiteSpace=wrap;html=1;" parent="1" vertex="1">
                    <mxGeometry x="977.5" y="348" width="5" height="40" as="geometry"/>
                </mxCell>
                <mxCell id="S5-y5zS6l2NAs_fPD0nN-29" value="&lt;span style=&quot;&quot;&gt;&lt;font style=&quot;font-size: 11px;&quot;&gt;&lt;br&gt;Hostel room avaibility&lt;br&gt;&lt;/font&gt;&lt;br&gt;&lt;/span&gt;" style="text;html=1;align=center;verticalAlign=middle;resizable=0;points=[];autosize=1;strokeColor=none;fillColor=none;" parent="1" vertex="1">
                    <mxGeometry x="440" y="160" width="130" height="60" as="geometry"/>
                </mxCell>
                <mxCell id="S5-y5zS6l2NAs_fPD0nN-30" value="Make payment&lt;br&gt;Payment information" style="text;html=1;align=center;verticalAlign=middle;resizable=0;points=[];autosize=1;strokeColor=none;fillColor=none;" parent="1" vertex="1">
                    <mxGeometry x="641.5" y="200" width="130" height="40" as="geometry"/>
                </mxCell>
                <mxCell id="S5-y5zS6l2NAs_fPD0nN-31" value="" style="edgeStyle=none;html=1;dashed=1;dashPattern=8 8;endArrow=none;endFill=0;entryX=0.5;entryY=0;entryDx=0;entryDy=0;" parent="1" target="S5-y5zS6l2NAs_fPD0nN-33" edge="1">
                    <mxGeometry relative="1" as="geometry">
                        <mxPoint x="114.49999999999977" y="100" as="sourcePoint"/>
                        <mxPoint x="115" y="280" as="targetPoint"/>
                    </mxGeometry>
                </mxCell>
                <mxCell id="S5-y5zS6l2NAs_fPD0nN-32" value="" style="endArrow=classic;html=1;endSize=4;startSize=4;exitX=1.5;exitY=0.022;exitDx=0;exitDy=0;exitPerimeter=0;entryX=0;entryY=0;entryDx=0;entryDy=0;" parent="1" target="S5-y5zS6l2NAs_fPD0nN-28" edge="1">
                    <mxGeometry width="50" height="50" relative="1" as="geometry">
                        <mxPoint x="375" y="348" as="sourcePoint"/>
                        <mxPoint x="940" y="349" as="targetPoint"/>
                    </mxGeometry>
                </mxCell>
                <mxCell id="S5-y5zS6l2NAs_fPD0nN-33" value="" style="rounded=0;whiteSpace=wrap;html=1;" parent="1" vertex="1">
                    <mxGeometry x="112.5" y="310" width="5" height="80" as="geometry"/>
                </mxCell>
                <mxCell id="S5-y5zS6l2NAs_fPD0nN-34" value="" style="endArrow=classic;html=1;endSize=4;startSize=4;" parent="1" edge="1">
                    <mxGeometry width="50" height="50" relative="1" as="geometry">
                        <mxPoint x="117.5" y="309.5" as="sourcePoint"/>
                        <mxPoint x="370" y="310" as="targetPoint"/>
                    </mxGeometry>
                </mxCell>
                <mxCell id="S5-y5zS6l2NAs_fPD0nN-35" value="" style="edgeStyle=none;html=1;dashed=1;dashPattern=8 8;endArrow=none;endFill=0;" parent="1" edge="1">
                    <mxGeometry relative="1" as="geometry">
                        <mxPoint x="371.4999999999998" y="203" as="sourcePoint"/>
                        <mxPoint x="371.9999999999998" y="313" as="targetPoint"/>
                    </mxGeometry>
                </mxCell>
                <mxCell id="S5-y5zS6l2NAs_fPD0nN-36" value="" style="rounded=0;whiteSpace=wrap;html=1;" parent="1" vertex="1">
                    <mxGeometry x="369.5" y="308" width="5" height="40" as="geometry"/>
                </mxCell>
                <mxCell id="S5-y5zS6l2NAs_fPD0nN-37" value="&lt;span style=&quot;color: rgb(0, 0, 0); font-family: Helvetica; font-size: 12px; font-style: normal; font-variant-ligatures: normal; font-variant-caps: normal; font-weight: 400; letter-spacing: normal; orphans: 2; text-align: center; text-indent: 0px; text-transform: none; widows: 2; word-spacing: 0px; -webkit-text-stroke-width: 0px; background-color: rgb(251, 251, 251); text-decoration-thickness: initial; text-decoration-style: initial; text-decoration-color: initial; float: none; display: inline !important;&quot;&gt;Login as Fellow/JKM&lt;/span&gt;" style="text;whiteSpace=wrap;html=1;fontSize=8;" parent="1" vertex="1">
                    <mxGeometry x="254.5" y="285" width="120" height="40" as="geometry"/>
                </mxCell>
                <mxCell id="S5-y5zS6l2NAs_fPD0nN-38" value="&lt;span style=&quot;color: rgb(0, 0, 0); font-family: Helvetica; font-size: 12px; font-style: normal; font-variant-ligatures: normal; font-variant-caps: normal; font-weight: 400; letter-spacing: normal; orphans: 2; text-align: center; text-indent: 0px; text-transform: none; widows: 2; word-spacing: 0px; -webkit-text-stroke-width: 0px; background-color: rgb(251, 251, 251); text-decoration-thickness: initial; text-decoration-style: initial; text-decoration-color: initial; float: none; display: inline !important;&quot;&gt;Update Student college merits&lt;/span&gt;" style="text;whiteSpace=wrap;html=1;fontSize=8;" parent="1" vertex="1">
                    <mxGeometry x="850" y="307" width="150" height="40" as="geometry"/>
                </mxCell>
                <mxCell id="S5-y5zS6l2NAs_fPD0nN-39" style="edgeStyle=none;curved=1;html=1;exitX=1;exitY=0.25;exitDx=0;exitDy=0;endArrow=classic;endFill=1;startSize=4;endSize=4;entryX=1;entryY=0.75;entryDx=0;entryDy=0;" parent="1" edge="1">
                    <mxGeometry relative="1" as="geometry">
                        <mxPoint x="982.5" y="377" as="targetPoint"/>
                        <Array as="points">
                            <mxPoint x="1001" y="348"/>
                            <mxPoint x="1011" y="358"/>
                            <mxPoint x="1001" y="378"/>
                        </Array>
                        <mxPoint x="982.94" y="357" as="sourcePoint"/>
                    </mxGeometry>
                </mxCell>
                <mxCell id="S5-y5zS6l2NAs_fPD0nN-40" value="&lt;span style=&quot;&quot;&gt;Quota active application &lt;br&gt;success rate&lt;/span&gt;" style="text;html=1;align=center;verticalAlign=middle;resizable=0;points=[];autosize=1;strokeColor=none;fillColor=none;" parent="1" vertex="1">
                    <mxGeometry x="1000" y="348" width="150" height="40" as="geometry"/>
                </mxCell>
                <mxCell id="S5-y5zS6l2NAs_fPD0nN-41" value="" style="rounded=0;whiteSpace=wrap;html=1;" parent="1" vertex="1">
                    <mxGeometry x="172.5" y="440" width="5" height="130" as="geometry"/>
                </mxCell>
                <mxCell id="S5-y5zS6l2NAs_fPD0nN-42" value="" style="endArrow=classic;html=1;endSize=4;startSize=4;" parent="1" edge="1">
                    <mxGeometry width="50" height="50" relative="1" as="geometry">
                        <mxPoint x="177.5" y="449" as="sourcePoint"/>
                        <mxPoint x="370" y="450" as="targetPoint"/>
                    </mxGeometry>
                </mxCell>
                <mxCell id="S5-y5zS6l2NAs_fPD0nN-43" value="" style="rounded=0;whiteSpace=wrap;html=1;" parent="1" vertex="1">
                    <mxGeometry x="369.5" y="448" width="5" height="40" as="geometry"/>
                </mxCell>
                <mxCell id="S5-y5zS6l2NAs_fPD0nN-44" value="&lt;span style=&quot;color: rgb(0, 0, 0); font-family: Helvetica; font-size: 12px; font-style: normal; font-variant-ligatures: normal; font-variant-caps: normal; font-weight: 400; letter-spacing: normal; orphans: 2; text-align: center; text-indent: 0px; text-transform: none; widows: 2; word-spacing: 0px; -webkit-text-stroke-width: 0px; background-color: rgb(251, 251, 251); text-decoration-thickness: initial; text-decoration-style: initial; text-decoration-color: initial; float: none; display: inline !important;&quot;&gt;Login as Admin&lt;/span&gt;" style="text;whiteSpace=wrap;html=1;fontSize=8;" parent="1" vertex="1">
                    <mxGeometry x="280" y="420" width="120" height="40" as="geometry"/>
                </mxCell>
                <mxCell id="S5-y5zS6l2NAs_fPD0nN-45" value="" style="edgeStyle=none;html=1;dashed=1;dashPattern=8 8;endArrow=none;endFill=0;entryX=0.5;entryY=0;entryDx=0;entryDy=0;" parent="1" target="S5-y5zS6l2NAs_fPD0nN-41" edge="1">
                    <mxGeometry relative="1" as="geometry">
                        <mxPoint x="175" y="100" as="sourcePoint"/>
                        <mxPoint x="175.5" y="280" as="targetPoint"/>
                    </mxGeometry>
                </mxCell>
                <mxCell id="S5-y5zS6l2NAs_fPD0nN-46" value="" style="edgeStyle=none;html=1;dashed=1;dashPattern=8 8;endArrow=none;endFill=0;" parent="1" edge="1">
                    <mxGeometry relative="1" as="geometry">
                        <mxPoint x="371.4999999999998" y="348.9999999999999" as="sourcePoint"/>
                        <mxPoint x="371.9999999999998" y="449" as="targetPoint"/>
                    </mxGeometry>
                </mxCell>
                <mxCell id="S5-y5zS6l2NAs_fPD0nN-47" value="" style="edgeStyle=none;html=1;entryX=0.5;entryY=0;entryDx=0;entryDy=0;dashed=1;dashPattern=8 8;endArrow=none;endFill=0;" parent="1" target="S5-y5zS6l2NAs_fPD0nN-48" edge="1">
                    <mxGeometry relative="1" as="geometry">
                        <mxPoint x="571.0000000000002" y="248" as="sourcePoint"/>
                        <mxPoint x="572.59" y="311.9999999999999" as="targetPoint"/>
                    </mxGeometry>
                </mxCell>
                <mxCell id="S5-y5zS6l2NAs_fPD0nN-48" value="" style="rounded=0;whiteSpace=wrap;html=1;" parent="1" vertex="1">
                    <mxGeometry x="568" y="488" width="5" height="40" as="geometry"/>
                </mxCell>
                <mxCell id="S5-y5zS6l2NAs_fPD0nN-49" value="" style="edgeStyle=none;html=1;entryX=0.5;entryY=0;entryDx=0;entryDy=0;dashed=1;dashPattern=8 8;endArrow=none;endFill=0;startArrow=none;" parent="1" edge="1">
                    <mxGeometry relative="1" as="geometry">
                        <mxPoint x="369.5899999999999" y="464.1042471042474" as="sourcePoint"/>
                        <mxPoint x="369.4999999999998" y="464" as="targetPoint"/>
                    </mxGeometry>
                </mxCell>
                <mxCell id="S5-y5zS6l2NAs_fPD0nN-50" value="" style="endArrow=classic;html=1;endSize=4;startSize=4;entryX=0;entryY=0;entryDx=0;entryDy=0;" parent="1" edge="1">
                    <mxGeometry width="50" height="50" relative="1" as="geometry">
                        <mxPoint x="374.5899999999999" y="487" as="sourcePoint"/>
                        <mxPoint x="568.0900000000001" y="487" as="targetPoint"/>
                    </mxGeometry>
                </mxCell>
                <mxCell id="S5-y5zS6l2NAs_fPD0nN-51" value="&lt;span style=&quot;color: rgb(0, 0, 0); font-family: Helvetica; font-size: 12px; font-style: normal; font-variant-ligatures: normal; font-variant-caps: normal; font-weight: 400; letter-spacing: normal; orphans: 2; text-align: center; text-indent: 0px; text-transform: none; widows: 2; word-spacing: 0px; -webkit-text-stroke-width: 0px; background-color: rgb(251, 251, 251); text-decoration-thickness: initial; text-decoration-style: initial; text-decoration-color: initial; float: none; display: inline !important;&quot;&gt;Room allocation&lt;/span&gt;" style="text;whiteSpace=wrap;html=1;fontSize=8;" parent="1" vertex="1">
                    <mxGeometry x="470" y="460" width="120" height="40" as="geometry"/>
                </mxCell>
                <mxCell id="S5-y5zS6l2NAs_fPD0nN-52" value="" style="edgeStyle=none;html=1;dashed=1;dashPattern=8 8;endArrow=none;endFill=0;exitX=0.419;exitY=1.082;exitDx=0;exitDy=0;exitPerimeter=0;entryX=0.5;entryY=0;entryDx=0;entryDy=0;" parent="1" target="S5-y5zS6l2NAs_fPD0nN-89" edge="1">
                    <mxGeometry relative="1" as="geometry">
                        <mxPoint x="980.6099999999997" y="388" as="sourcePoint"/>
                        <mxPoint x="980" y="638" as="targetPoint"/>
                    </mxGeometry>
                </mxCell>
                <mxCell id="S5-y5zS6l2NAs_fPD0nN-53" value="" style="rounded=0;whiteSpace=wrap;html=1;" parent="1" vertex="1">
                    <mxGeometry x="977.5" y="526" width="5" height="40" as="geometry"/>
                </mxCell>
                <mxCell id="S5-y5zS6l2NAs_fPD0nN-54" value="" style="edgeStyle=none;html=1;entryX=0.5;entryY=0;entryDx=0;entryDy=0;dashed=1;dashPattern=8 8;endArrow=none;endFill=0;startArrow=none;" parent="1" edge="1">
                    <mxGeometry relative="1" as="geometry">
                        <mxPoint x="568.0900000000001" y="504.1042471042474" as="sourcePoint"/>
                        <mxPoint x="568" y="504" as="targetPoint"/>
                    </mxGeometry>
                </mxCell>
                <mxCell id="S5-y5zS6l2NAs_fPD0nN-55" value="" style="endArrow=classic;html=1;endSize=4;startSize=4;entryX=0.25;entryY=0;entryDx=0;entryDy=0;" parent="1" target="S5-y5zS6l2NAs_fPD0nN-53" edge="1">
                    <mxGeometry width="50" height="50" relative="1" as="geometry">
                        <mxPoint x="573.0900000000001" y="527" as="sourcePoint"/>
                        <mxPoint x="960" y="527" as="targetPoint"/>
                    </mxGeometry>
                </mxCell>
                <mxCell id="S5-y5zS6l2NAs_fPD0nN-56" value="&lt;span style=&quot;font-size: 12px; text-align: center;&quot;&gt;Overview reports&lt;/span&gt;" style="text;whiteSpace=wrap;html=1;fontSize=8;" parent="1" vertex="1">
                    <mxGeometry x="880" y="500" width="120" height="40" as="geometry"/>
                </mxCell>
                <mxCell id="S5-y5zS6l2NAs_fPD0nN-57" style="edgeStyle=none;curved=1;html=1;exitX=0;exitY=1;exitDx=0;exitDy=0;endArrow=classic;endFill=1;startSize=4;endSize=4;dashed=1;" parent="1" source="S5-y5zS6l2NAs_fPD0nN-26" edge="1">
                    <mxGeometry relative="1" as="geometry">
                        <mxPoint x="57.5" y="275" as="targetPoint"/>
                        <mxPoint x="975" y="280" as="sourcePoint"/>
                    </mxGeometry>
                </mxCell>
                <mxCell id="S5-y5zS6l2NAs_fPD0nN-58" value="" style="edgeStyle=none;html=1;dashed=1;dashPattern=8 8;endArrow=none;endFill=0;exitX=0.25;exitY=1;exitDx=0;exitDy=0;entryX=0.5;entryY=0;entryDx=0;entryDy=0;entryPerimeter=0;" parent="1" source="S5-y5zS6l2NAs_fPD0nN-9" target="S5-y5zS6l2NAs_fPD0nN-5" edge="1">
                    <mxGeometry relative="1" as="geometry">
                        <mxPoint x="54.58" y="560" as="sourcePoint"/>
                        <mxPoint x="55" y="980" as="targetPoint"/>
                    </mxGeometry>
                </mxCell>
                <mxCell id="S5-y5zS6l2NAs_fPD0nN-59" style="edgeStyle=none;curved=1;html=1;exitX=0;exitY=1;exitDx=0;exitDy=0;endArrow=classic;endFill=1;startSize=4;endSize=4;dashed=1;" parent="1" edge="1">
                    <mxGeometry relative="1" as="geometry">
                        <mxPoint x="120" y="388" as="targetPoint"/>
                        <mxPoint x="977.5" y="388" as="sourcePoint"/>
                    </mxGeometry>
                </mxCell>
                <mxCell id="S5-y5zS6l2NAs_fPD0nN-60" value="" style="edgeStyle=none;html=1;dashed=1;dashPattern=8 8;endArrow=none;endFill=0;exitX=0.25;exitY=1;exitDx=0;exitDy=0;entryX=0.5;entryY=0;entryDx=0;entryDy=0;entryPerimeter=0;" parent="1" target="S5-y5zS6l2NAs_fPD0nN-8" edge="1">
                    <mxGeometry relative="1" as="geometry">
                        <mxPoint x="114.38000000000011" y="388" as="sourcePoint"/>
                        <mxPoint x="116" y="980" as="targetPoint"/>
                    </mxGeometry>
                </mxCell>
                <mxCell id="S5-y5zS6l2NAs_fPD0nN-61" style="edgeStyle=none;curved=1;html=1;endArrow=classic;endFill=1;startSize=4;endSize=4;dashed=1;" parent="1" edge="1">
                    <mxGeometry relative="1" as="geometry">
                        <mxPoint x="177.5" y="367.28999999999996" as="targetPoint"/>
                        <mxPoint x="980" y="367" as="sourcePoint"/>
                    </mxGeometry>
                </mxCell>
                <mxCell id="S5-y5zS6l2NAs_fPD0nN-62" value="&lt;span style=&quot;color: rgb(0, 0, 0); font-family: Helvetica; font-size: 12px; font-style: normal; font-variant-ligatures: normal; font-variant-caps: normal; font-weight: 400; letter-spacing: normal; orphans: 2; text-align: center; text-indent: 0px; text-transform: none; widows: 2; word-spacing: 0px; -webkit-text-stroke-width: 0px; background-color: rgb(251, 251, 251); text-decoration-thickness: initial; text-decoration-style: initial; text-decoration-color: initial; float: none; display: inline !important;&quot;&gt;Quota&amp;nbsp;&lt;/span&gt;&lt;span style=&quot;font-size: 12px; text-align: center;&quot;&gt;active application&amp;nbsp;&lt;/span&gt;&lt;span style=&quot;font-size: 12px; text-align: center;&quot;&gt;success rate updated info&lt;/span&gt;" style="text;whiteSpace=wrap;html=1;fontSize=8;" parent="1" vertex="1">
                    <mxGeometry x="226.75" y="347" width="313.25" height="20" as="geometry"/>
                </mxCell>
                <mxCell id="S5-y5zS6l2NAs_fPD0nN-63" style="edgeStyle=none;curved=1;html=1;endArrow=classic;endFill=1;startSize=4;endSize=4;dashed=1;" parent="1" edge="1">
                    <mxGeometry relative="1" as="geometry">
                        <mxPoint x="177.5" y="566.29" as="targetPoint"/>
                        <mxPoint x="980" y="566" as="sourcePoint"/>
                    </mxGeometry>
                </mxCell>
                <mxCell id="S5-y5zS6l2NAs_fPD0nN-64" value="" style="edgeStyle=none;html=1;dashed=1;dashPattern=8 8;endArrow=none;endFill=0;entryX=0.5;entryY=0;entryDx=0;entryDy=0;entryPerimeter=0;" parent="1" target="S5-y5zS6l2NAs_fPD0nN-6" edge="1">
                    <mxGeometry relative="1" as="geometry">
                        <mxPoint x="174.28999999999996" y="570" as="sourcePoint"/>
                        <mxPoint x="170" y="980" as="targetPoint"/>
                    </mxGeometry>
                </mxCell>
                <mxCell id="S5-y5zS6l2NAs_fPD0nN-65" value="" style="endArrow=classic;html=1;endSize=4;startSize=4;entryX=0;entryY=0;entryDx=0;entryDy=0;" parent="1" target="S5-y5zS6l2NAs_fPD0nN-66" edge="1">
                    <mxGeometry width="50" height="50" relative="1" as="geometry">
                        <mxPoint x="226.75" y="701" as="sourcePoint"/>
                        <mxPoint x="419.25" y="702" as="targetPoint"/>
                    </mxGeometry>
                </mxCell>
                <mxCell id="S5-y5zS6l2NAs_fPD0nN-66" value="" style="rounded=0;whiteSpace=wrap;html=1;" parent="1" vertex="1">
                    <mxGeometry x="369.5" y="701" width="5" height="40" as="geometry"/>
                </mxCell>
                <mxCell id="S5-y5zS6l2NAs_fPD0nN-67" value="" style="edgeStyle=none;html=1;entryX=0.5;entryY=0;entryDx=0;entryDy=0;dashed=1;dashPattern=8 8;endArrow=none;endFill=0;startArrow=none;" parent="1" edge="1">
                    <mxGeometry relative="1" as="geometry">
                        <mxPoint x="369.5899999999999" y="717.1042471042474" as="sourcePoint"/>
                        <mxPoint x="369.4999999999998" y="717" as="targetPoint"/>
                    </mxGeometry>
                </mxCell>
                <mxCell id="S5-y5zS6l2NAs_fPD0nN-68" value="" style="rounded=0;whiteSpace=wrap;html=1;" parent="1" vertex="1">
                    <mxGeometry x="221.75" y="700" width="5" height="120" as="geometry"/>
                </mxCell>
                <mxCell id="S5-y5zS6l2NAs_fPD0nN-69" value="" style="edgeStyle=none;html=1;dashed=1;dashPattern=8 8;endArrow=none;endFill=0;entryX=0.5;entryY=0;entryDx=0;entryDy=0;" parent="1" target="S5-y5zS6l2NAs_fPD0nN-68" edge="1">
                    <mxGeometry relative="1" as="geometry">
                        <mxPoint x="225" y="100" as="sourcePoint"/>
                        <mxPoint x="225.5" y="280" as="targetPoint"/>
                    </mxGeometry>
                </mxCell>
                <mxCell id="S5-y5zS6l2NAs_fPD0nN-70" value="&lt;span style=&quot;color: rgb(0, 0, 0); font-family: Helvetica; font-size: 12px; font-style: normal; font-variant-ligatures: normal; font-variant-caps: normal; font-weight: 400; letter-spacing: normal; orphans: 2; text-align: center; text-indent: 0px; text-transform: none; widows: 2; word-spacing: 0px; -webkit-text-stroke-width: 0px; background-color: rgb(251, 251, 251); text-decoration-thickness: initial; text-decoration-style: initial; text-decoration-color: initial; float: none; display: inline !important;&quot;&gt;Login as Staff&lt;/span&gt;" style="text;whiteSpace=wrap;html=1;fontSize=8;" parent="1" vertex="1">
                    <mxGeometry x="290" y="670" width="120" height="40" as="geometry"/>
                </mxCell>
                <mxCell id="S5-y5zS6l2NAs_fPD0nN-71" value="" style="edgeStyle=none;html=1;dashed=1;dashPattern=8 8;endArrow=none;endFill=0;entryX=0.5;entryY=0;entryDx=0;entryDy=0;" parent="1" target="S5-y5zS6l2NAs_fPD0nN-66" edge="1">
                    <mxGeometry relative="1" as="geometry">
                        <mxPoint x="371.9999999999998" y="490" as="sourcePoint"/>
                        <mxPoint x="460" y="670" as="targetPoint"/>
                    </mxGeometry>
                </mxCell>
                <mxCell id="S5-y5zS6l2NAs_fPD0nN-72" value="" style="edgeStyle=none;html=1;entryX=0.5;entryY=0;entryDx=0;entryDy=0;dashed=1;dashPattern=8 8;endArrow=none;endFill=0;startArrow=none;" parent="1" edge="1">
                    <mxGeometry relative="1" as="geometry">
                        <mxPoint x="369.5899999999999" y="716.1042471042474" as="sourcePoint"/>
                        <mxPoint x="369.4999999999998" y="716" as="targetPoint"/>
                    </mxGeometry>
                </mxCell>
                <mxCell id="S5-y5zS6l2NAs_fPD0nN-73" value="" style="endArrow=classic;html=1;endSize=4;startSize=4;entryX=0;entryY=0;entryDx=0;entryDy=0;" parent="1" edge="1">
                    <mxGeometry width="50" height="50" relative="1" as="geometry">
                        <mxPoint x="374.5899999999999" y="739" as="sourcePoint"/>
                        <mxPoint x="568.0900000000001" y="739" as="targetPoint"/>
                    </mxGeometry>
                </mxCell>
                <mxCell id="S5-y5zS6l2NAs_fPD0nN-74" value="" style="edgeStyle=none;html=1;entryX=0.5;entryY=0;entryDx=0;entryDy=0;dashed=1;dashPattern=8 8;endArrow=none;endFill=0;startArrow=none;" parent="1" edge="1">
                    <mxGeometry relative="1" as="geometry">
                        <mxPoint x="568.0900000000001" y="756.1042471042474" as="sourcePoint"/>
                        <mxPoint x="568" y="756" as="targetPoint"/>
                    </mxGeometry>
                </mxCell>
                <mxCell id="S5-y5zS6l2NAs_fPD0nN-75" value="" style="rounded=0;whiteSpace=wrap;html=1;" parent="1" vertex="1">
                    <mxGeometry x="568" y="740" width="5" height="40" as="geometry"/>
                </mxCell>
                <mxCell id="S5-y5zS6l2NAs_fPD0nN-76" value="" style="edgeStyle=none;html=1;entryX=0.5;entryY=0;entryDx=0;entryDy=0;dashed=1;dashPattern=8 8;endArrow=none;endFill=0;startArrow=none;" parent="1" edge="1">
                    <mxGeometry relative="1" as="geometry">
                        <mxPoint x="568.0900000000001" y="756.1042471042474" as="sourcePoint"/>
                        <mxPoint x="568" y="756" as="targetPoint"/>
                    </mxGeometry>
                </mxCell>
                <mxCell id="S5-y5zS6l2NAs_fPD0nN-77" value="&lt;span style=&quot;&quot;&gt;&lt;font style=&quot;font-size: 11px;&quot;&gt;Online control&lt;/font&gt;&lt;br&gt;&lt;/span&gt;" style="text;html=1;align=center;verticalAlign=middle;resizable=0;points=[];autosize=1;strokeColor=none;fillColor=none;" parent="1" vertex="1">
                    <mxGeometry x="478" y="710" width="90" height="30" as="geometry"/>
                </mxCell>
                <mxCell id="S5-y5zS6l2NAs_fPD0nN-78" value="" style="rounded=0;whiteSpace=wrap;html=1;" parent="1" vertex="1">
                    <mxGeometry x="767.5" y="779" width="3.5" height="40" as="geometry"/>
                </mxCell>
                <mxCell id="S5-y5zS6l2NAs_fPD0nN-79" value="" style="endArrow=classic;html=1;endSize=4;startSize=4;entryX=0;entryY=0;entryDx=0;entryDy=0;" parent="1" target="S5-y5zS6l2NAs_fPD0nN-78" edge="1">
                    <mxGeometry width="50" height="50" relative="1" as="geometry">
                        <mxPoint x="574" y="779" as="sourcePoint"/>
                        <mxPoint x="886.5" y="779" as="targetPoint"/>
                    </mxGeometry>
                </mxCell>
                <mxCell id="S5-y5zS6l2NAs_fPD0nN-80" value="" style="rounded=0;whiteSpace=wrap;html=1;" parent="1" vertex="1">
                    <mxGeometry x="767.5" y="779" width="5" height="40" as="geometry"/>
                </mxCell>
                <mxCell id="S5-y5zS6l2NAs_fPD0nN-81" value="&lt;span style=&quot;&quot;&gt;Payment information&lt;/span&gt;" style="text;html=1;align=center;verticalAlign=middle;resizable=0;points=[];autosize=1;strokeColor=none;fillColor=none;" parent="1" vertex="1">
                    <mxGeometry x="642.5" y="754" width="130" height="30" as="geometry"/>
                </mxCell>
                <mxCell id="S5-y5zS6l2NAs_fPD0nN-82" value="" style="edgeStyle=none;html=1;dashed=1;dashPattern=8 8;endArrow=none;endFill=0;entryX=0.5;entryY=0;entryDx=0;entryDy=0;" parent="1" target="S5-y5zS6l2NAs_fPD0nN-75" edge="1">
                    <mxGeometry relative="1" as="geometry">
                        <mxPoint x="570.4099999999999" y="528" as="sourcePoint"/>
                        <mxPoint x="600" y="730" as="targetPoint"/>
                    </mxGeometry>
                </mxCell>
                <mxCell id="S5-y5zS6l2NAs_fPD0nN-83" value="" style="rounded=0;whiteSpace=wrap;html=1;" parent="1" vertex="1">
                    <mxGeometry x="767.5" y="779" width="3.5" height="40" as="geometry"/>
                </mxCell>
                <mxCell id="S5-y5zS6l2NAs_fPD0nN-84" value="" style="rounded=0;whiteSpace=wrap;html=1;" parent="1" vertex="1">
                    <mxGeometry x="767.5" y="779" width="5" height="40" as="geometry"/>
                </mxCell>
                <mxCell id="S5-y5zS6l2NAs_fPD0nN-85" value="" style="edgeStyle=none;html=1;dashed=1;dashPattern=8 8;endArrow=none;endFill=0;exitX=0.419;exitY=1.082;exitDx=0;exitDy=0;exitPerimeter=0;entryX=0.5;entryY=0;entryDx=0;entryDy=0;" parent="1" target="S5-y5zS6l2NAs_fPD0nN-84" edge="1">
                    <mxGeometry relative="1" as="geometry">
                        <mxPoint x="769.27" y="281.23" as="sourcePoint"/>
                        <mxPoint x="768.66" y="418.77" as="targetPoint"/>
                    </mxGeometry>
                </mxCell>
                <mxCell id="S5-y5zS6l2NAs_fPD0nN-86" style="edgeStyle=none;curved=1;html=1;endArrow=classic;endFill=1;startSize=4;endSize=4;dashed=1;exitX=0.5;exitY=1;exitDx=0;exitDy=0;entryX=0.5;entryY=1;entryDx=0;entryDy=0;startArrow=none;" parent="1" source="S5-y5zS6l2NAs_fPD0nN-123" target="S5-y5zS6l2NAs_fPD0nN-68" edge="1">
                    <mxGeometry relative="1" as="geometry">
                        <mxPoint x="226.75" y="798.6999999999997" as="targetPoint"/>
                        <mxPoint x="1029.25" y="798.4099999999997" as="sourcePoint"/>
                    </mxGeometry>
                </mxCell>
                <mxCell id="S5-y5zS6l2NAs_fPD0nN-87" value="" style="edgeStyle=none;html=1;dashed=1;dashPattern=8 8;endArrow=none;endFill=0;entryX=0.5;entryY=0;entryDx=0;entryDy=0;entryPerimeter=0;" parent="1" target="S5-y5zS6l2NAs_fPD0nN-7" edge="1">
                    <mxGeometry relative="1" as="geometry">
                        <mxPoint x="224.41000000000008" y="820" as="sourcePoint"/>
                        <mxPoint x="310" y="940" as="targetPoint"/>
                    </mxGeometry>
                </mxCell>
                <mxCell id="S5-y5zS6l2NAs_fPD0nN-88" value="Authentication Subsystem" style="rounded=0;whiteSpace=wrap;html=1;shadow=0;" parent="1" vertex="1">
                    <mxGeometry x="290" y="1020" width="160" height="30" as="geometry"/>
                </mxCell>
                <mxCell id="S5-y5zS6l2NAs_fPD0nN-89" value="Report &amp;amp; Analytic Subsystem" style="rounded=0;whiteSpace=wrap;html=1;shadow=0;" parent="1" vertex="1">
                    <mxGeometry x="900" y="1020" width="160" height="30" as="geometry"/>
                </mxCell>
                <mxCell id="S5-y5zS6l2NAs_fPD0nN-90" value="Payment Management Subsystem" style="rounded=0;whiteSpace=wrap;html=1;shadow=0;" parent="1" vertex="1">
                    <mxGeometry x="690" y="1020" width="190" height="30" as="geometry"/>
                </mxCell>
                <mxCell id="S5-y5zS6l2NAs_fPD0nN-91" value="Room Management Subsystem" style="rounded=0;whiteSpace=wrap;html=1;shadow=0;" parent="1" vertex="1">
                    <mxGeometry x="480" y="1020" width="190" height="30" as="geometry"/>
                </mxCell>
                <mxCell id="S5-y5zS6l2NAs_fPD0nN-92" value="" style="edgeStyle=none;html=1;dashed=1;dashPattern=8 8;endArrow=none;endFill=0;exitX=0.5;exitY=1;exitDx=0;exitDy=0;" parent="1" source="S5-y5zS6l2NAs_fPD0nN-66" edge="1">
                    <mxGeometry relative="1" as="geometry">
                        <mxPoint x="382" y="500" as="sourcePoint"/>
                        <mxPoint x="371.9999999999998" y="1020" as="targetPoint"/>
                    </mxGeometry>
                </mxCell>
                <mxCell id="S5-y5zS6l2NAs_fPD0nN-93" value="" style="edgeStyle=none;html=1;dashed=1;dashPattern=8 8;endArrow=none;endFill=0;entryX=0.474;entryY=0.333;entryDx=0;entryDy=0;entryPerimeter=0;" parent="1" target="S5-y5zS6l2NAs_fPD0nN-91" edge="1">
                    <mxGeometry relative="1" as="geometry">
                        <mxPoint x="569.9099999999999" y="790" as="sourcePoint"/>
                        <mxPoint x="570" y="1010" as="targetPoint"/>
                    </mxGeometry>
                </mxCell>
                <mxCell id="S5-y5zS6l2NAs_fPD0nN-94" value="" style="edgeStyle=none;html=1;dashed=1;dashPattern=8 8;endArrow=none;endFill=0;entryX=0.42;entryY=-0.09;entryDx=0;entryDy=0;entryPerimeter=0;" parent="1" target="S5-y5zS6l2NAs_fPD0nN-90" edge="1">
                    <mxGeometry relative="1" as="geometry">
                        <mxPoint x="770" y="830" as="sourcePoint"/>
                        <mxPoint x="770" y="1040.9999999999998" as="targetPoint"/>
                    </mxGeometry>
                </mxCell>
                <mxCell id="S5-y5zS6l2NAs_fPD0nN-95" value="&lt;span style=&quot;&quot;&gt;Room occupancy rate/&lt;br&gt;&lt;/span&gt;&lt;span style=&quot;&quot;&gt;College maintenance report/&lt;br&gt;&lt;/span&gt;&lt;span style=&quot;&quot;&gt;Quota active application success rate&lt;/span&gt;&lt;span style=&quot;&quot;&gt;&lt;br&gt;&lt;/span&gt;" style="text;html=1;align=center;verticalAlign=middle;resizable=0;points=[];autosize=1;strokeColor=none;fillColor=none;" parent="1" vertex="1">
                    <mxGeometry x="772.5" y="560" width="220" height="60" as="geometry"/>
                </mxCell>
                <mxCell id="S5-y5zS6l2NAs_fPD0nN-96" style="edgeStyle=none;curved=1;html=1;exitX=0;exitY=1;exitDx=0;exitDy=0;endArrow=classic;endFill=1;startSize=4;endSize=4;dashed=1;" parent="1" edge="1">
                    <mxGeometry relative="1" as="geometry">
                        <mxPoint x="227" y="258" as="targetPoint"/>
                        <mxPoint x="764.5" y="262.5" as="sourcePoint"/>
                    </mxGeometry>
                </mxCell>
                <mxCell id="S5-y5zS6l2NAs_fPD0nN-97" value="Payment receipt &amp;amp; history" style="text;html=1;align=center;verticalAlign=middle;resizable=0;points=[];autosize=1;strokeColor=none;fillColor=none;" parent="1" vertex="1">
                    <mxGeometry x="612.5" y="255" width="160" height="30" as="geometry"/>
                </mxCell>
                <mxCell id="S5-y5zS6l2NAs_fPD0nN-98" value="Payment notification" style="text;html=1;align=center;verticalAlign=middle;resizable=0;points=[];autosize=1;strokeColor=none;fillColor=none;" parent="1" vertex="1">
                    <mxGeometry x="642.5" y="240" width="130" height="30" as="geometry"/>
                </mxCell>
                <mxCell id="S5-y5zS6l2NAs_fPD0nN-99" style="edgeStyle=none;curved=1;html=1;exitX=1;exitY=0.25;exitDx=0;exitDy=0;endArrow=classic;endFill=1;startSize=4;endSize=4;entryX=1;entryY=0.75;entryDx=0;entryDy=0;" parent="1" edge="1">
                    <mxGeometry relative="1" as="geometry">
                        <mxPoint x="374.5" y="189" as="targetPoint"/>
                        <Array as="points">
                            <mxPoint x="393" y="160"/>
                            <mxPoint x="403" y="170"/>
                            <mxPoint x="393" y="190"/>
                        </Array>
                        <mxPoint x="374.94000000000005" y="169" as="sourcePoint"/>
                    </mxGeometry>
                </mxCell>
                <mxCell id="S5-y5zS6l2NAs_fPD0nN-100" value="Correct &lt;br&gt;password" style="text;html=1;align=center;verticalAlign=middle;resizable=0;points=[];autosize=1;strokeColor=none;fillColor=none;" parent="1" vertex="1">
                    <mxGeometry x="390" y="150" width="70" height="40" as="geometry"/>
                </mxCell>
                <mxCell id="S5-y5zS6l2NAs_fPD0nN-101" style="edgeStyle=none;curved=1;html=1;exitX=0;exitY=1;exitDx=0;exitDy=0;endArrow=classic;endFill=1;startSize=4;endSize=4;dashed=1;" parent="1" edge="1">
                    <mxGeometry relative="1" as="geometry">
                        <mxPoint x="60" y="203" as="targetPoint"/>
                        <mxPoint x="366.25" y="202.5" as="sourcePoint"/>
                    </mxGeometry>
                </mxCell>
                <mxCell id="S5-y5zS6l2NAs_fPD0nN-102" value="Incorrect &lt;br&gt;password" style="text;html=1;align=center;verticalAlign=middle;resizable=0;points=[];autosize=1;strokeColor=none;fillColor=none;" parent="1" vertex="1">
                    <mxGeometry x="304.5" y="163" width="70" height="40" as="geometry"/>
                </mxCell>
                <mxCell id="S5-y5zS6l2NAs_fPD0nN-103" style="edgeStyle=none;curved=1;html=1;exitX=1;exitY=0.25;exitDx=0;exitDy=0;endArrow=classic;endFill=1;startSize=4;endSize=4;entryX=1;entryY=0.75;entryDx=0;entryDy=0;" parent="1" edge="1">
                    <mxGeometry relative="1" as="geometry">
                        <mxPoint x="573" y="229" as="targetPoint"/>
                        <Array as="points">
                            <mxPoint x="591.5" y="200"/>
                            <mxPoint x="601.5" y="210"/>
                            <mxPoint x="591.5" y="230"/>
                        </Array>
                        <mxPoint x="573.44" y="209" as="sourcePoint"/>
                    </mxGeometry>
                </mxCell>
                <mxCell id="S5-y5zS6l2NAs_fPD0nN-104" value="&lt;span style=&quot;&quot;&gt;Real time room availability/&lt;br&gt;&lt;/span&gt;&lt;span style=&quot;&quot;&gt;Room preferences/&lt;br&gt;&lt;/span&gt;&lt;span style=&quot;&quot;&gt;Room allocation&lt;/span&gt;&lt;span style=&quot;&quot;&gt;&lt;br&gt;&lt;/span&gt;" style="text;html=1;align=center;verticalAlign=middle;resizable=0;points=[];autosize=1;strokeColor=none;fillColor=none;" parent="1" vertex="1">
                    <mxGeometry x="568" y="150" width="170" height="60" as="geometry"/>
                </mxCell>
                <mxCell id="S5-y5zS6l2NAs_fPD0nN-105" style="edgeStyle=none;curved=1;html=1;endArrow=classic;endFill=1;startSize=4;endSize=4;dashed=1;" parent="1" edge="1">
                    <mxGeometry relative="1" as="geometry">
                        <mxPoint x="174" y="240" as="targetPoint"/>
                        <mxPoint x="570" y="240" as="sourcePoint"/>
                    </mxGeometry>
                </mxCell>
                <mxCell id="S5-y5zS6l2NAs_fPD0nN-106" value="&lt;span style=&quot;&quot;&gt;Updated room allocation&lt;br&gt;&lt;/span&gt;" style="text;html=1;align=center;verticalAlign=middle;resizable=0;points=[];autosize=1;strokeColor=none;fillColor=none;" parent="1" vertex="1">
                    <mxGeometry x="423" y="213" width="150" height="30" as="geometry"/>
                </mxCell>
                <mxCell id="S5-y5zS6l2NAs_fPD0nN-107" style="edgeStyle=none;curved=1;html=1;exitX=1;exitY=0.25;exitDx=0;exitDy=0;endArrow=classic;endFill=1;startSize=4;endSize=4;entryX=1;entryY=0.75;entryDx=0;entryDy=0;" parent="1" edge="1">
                    <mxGeometry relative="1" as="geometry">
                        <mxPoint x="770" y="269" as="targetPoint"/>
                        <Array as="points">
                            <mxPoint x="788.5" y="240"/>
                            <mxPoint x="798.5" y="250"/>
                            <mxPoint x="788.5" y="270"/>
                        </Array>
                        <mxPoint x="770.44" y="249" as="sourcePoint"/>
                    </mxGeometry>
                </mxCell>
                <mxCell id="S5-y5zS6l2NAs_fPD0nN-108" value="Payment method" style="text;html=1;align=center;verticalAlign=middle;resizable=0;points=[];autosize=1;strokeColor=none;fillColor=none;" parent="1" vertex="1">
                    <mxGeometry x="807.5" y="245" width="110" height="30" as="geometry"/>
                </mxCell>
                <mxCell id="S5-y5zS6l2NAs_fPD0nN-109" style="edgeStyle=none;curved=1;html=1;exitX=1;exitY=0.25;exitDx=0;exitDy=0;endArrow=classic;endFill=1;startSize=4;endSize=4;entryX=1;entryY=0.75;entryDx=0;entryDy=0;" parent="1" edge="1">
                    <mxGeometry relative="1" as="geometry">
                        <mxPoint x="374.5" y="339" as="targetPoint"/>
                        <Array as="points">
                            <mxPoint x="393" y="310"/>
                            <mxPoint x="403" y="320"/>
                            <mxPoint x="393" y="340"/>
                        </Array>
                        <mxPoint x="374.94000000000005" y="319" as="sourcePoint"/>
                    </mxGeometry>
                </mxCell>
                <mxCell id="S5-y5zS6l2NAs_fPD0nN-110" value="Correct &lt;br&gt;password" style="text;html=1;align=center;verticalAlign=middle;resizable=0;points=[];autosize=1;strokeColor=none;fillColor=none;" parent="1" vertex="1">
                    <mxGeometry x="390" y="300" width="70" height="40" as="geometry"/>
                </mxCell>
                <mxCell id="S5-y5zS6l2NAs_fPD0nN-111" value="" style="edgeStyle=none;html=1;entryX=0.5;entryY=0;entryDx=0;entryDy=0;dashed=1;dashPattern=8 8;endArrow=none;endFill=0;startArrow=none;" parent="1" edge="1">
                    <mxGeometry relative="1" as="geometry">
                        <mxPoint x="368.5899999999999" y="324.6042471042475" as="sourcePoint"/>
                        <mxPoint x="368.49999999999955" y="324.5" as="targetPoint"/>
                    </mxGeometry>
                </mxCell>
                <mxCell id="S5-y5zS6l2NAs_fPD0nN-112" style="edgeStyle=none;curved=1;html=1;exitX=0;exitY=1;exitDx=0;exitDy=0;endArrow=classic;endFill=1;startSize=4;endSize=4;dashed=1;" parent="1" edge="1">
                    <mxGeometry relative="1" as="geometry">
                        <mxPoint x="120" y="348" as="targetPoint"/>
                        <mxPoint x="365.3399999999999" y="347" as="sourcePoint"/>
                    </mxGeometry>
                </mxCell>
                <mxCell id="S5-y5zS6l2NAs_fPD0nN-113" value="Incorrect &lt;br&gt;password" style="text;html=1;align=center;verticalAlign=middle;resizable=0;points=[];autosize=1;strokeColor=none;fillColor=none;" parent="1" vertex="1">
                    <mxGeometry x="299.5" y="310" width="70" height="40" as="geometry"/>
                </mxCell>
                <mxCell id="S5-y5zS6l2NAs_fPD0nN-114" style="edgeStyle=none;curved=1;html=1;exitX=1;exitY=0.25;exitDx=0;exitDy=0;endArrow=classic;endFill=1;startSize=4;endSize=4;entryX=1;entryY=0.75;entryDx=0;entryDy=0;" parent="1" edge="1">
                    <mxGeometry relative="1" as="geometry">
                        <mxPoint x="374.5" y="479" as="targetPoint"/>
                        <Array as="points">
                            <mxPoint x="393" y="450"/>
                            <mxPoint x="403" y="460"/>
                            <mxPoint x="393" y="480"/>
                        </Array>
                        <mxPoint x="374.94000000000005" y="459" as="sourcePoint"/>
                    </mxGeometry>
                </mxCell>
                <mxCell id="S5-y5zS6l2NAs_fPD0nN-115" value="Correct &lt;br&gt;password" style="text;html=1;align=center;verticalAlign=middle;resizable=0;points=[];autosize=1;strokeColor=none;fillColor=none;" parent="1" vertex="1">
                    <mxGeometry x="390" y="440" width="70" height="40" as="geometry"/>
                </mxCell>
                <mxCell id="S5-y5zS6l2NAs_fPD0nN-116" style="edgeStyle=none;curved=1;html=1;exitX=0;exitY=1;exitDx=0;exitDy=0;endArrow=classic;endFill=1;startSize=4;endSize=4;dashed=1;" parent="1" edge="1">
                    <mxGeometry relative="1" as="geometry">
                        <mxPoint x="180" y="488" as="targetPoint"/>
                        <mxPoint x="369.5" y="487" as="sourcePoint"/>
                    </mxGeometry>
                </mxCell>
                <mxCell id="S5-y5zS6l2NAs_fPD0nN-117" value="Incorrect &lt;br&gt;password" style="text;html=1;align=center;verticalAlign=middle;resizable=0;points=[];autosize=1;strokeColor=none;fillColor=none;" parent="1" vertex="1">
                    <mxGeometry x="299.5" y="448" width="70" height="40" as="geometry"/>
                </mxCell>
                <mxCell id="S5-y5zS6l2NAs_fPD0nN-118" style="edgeStyle=none;curved=1;html=1;exitX=1;exitY=0.25;exitDx=0;exitDy=0;endArrow=classic;endFill=1;startSize=4;endSize=4;entryX=1;entryY=0.75;entryDx=0;entryDy=0;" parent="1" edge="1">
                    <mxGeometry relative="1" as="geometry">
                        <mxPoint x="374.5" y="729" as="targetPoint"/>
                        <Array as="points">
                            <mxPoint x="393" y="700"/>
                            <mxPoint x="403" y="710"/>
                            <mxPoint x="393" y="730"/>
                        </Array>
                        <mxPoint x="374.94000000000005" y="709" as="sourcePoint"/>
                    </mxGeometry>
                </mxCell>
                <mxCell id="S5-y5zS6l2NAs_fPD0nN-119" value="Correct &lt;br&gt;password" style="text;html=1;align=center;verticalAlign=middle;resizable=0;points=[];autosize=1;strokeColor=none;fillColor=none;" parent="1" vertex="1">
                    <mxGeometry x="390" y="690" width="70" height="40" as="geometry"/>
                </mxCell>
                <mxCell id="S5-y5zS6l2NAs_fPD0nN-120" style="edgeStyle=none;curved=1;html=1;exitX=0;exitY=1;exitDx=0;exitDy=0;endArrow=classic;endFill=1;startSize=4;endSize=4;dashed=1;" parent="1" edge="1">
                    <mxGeometry relative="1" as="geometry">
                        <mxPoint x="230" y="740" as="targetPoint"/>
                        <mxPoint x="367" y="739" as="sourcePoint"/>
                    </mxGeometry>
                </mxCell>
                <mxCell id="S5-y5zS6l2NAs_fPD0nN-121" value="Incorrect &lt;br&gt;password" style="text;html=1;align=center;verticalAlign=middle;resizable=0;points=[];autosize=1;strokeColor=none;fillColor=none;" parent="1" vertex="1">
                    <mxGeometry x="304.5" y="701" width="70" height="40" as="geometry"/>
                </mxCell>
                <mxCell id="S5-y5zS6l2NAs_fPD0nN-122" value="" style="edgeStyle=none;curved=1;html=1;endArrow=none;endFill=1;startSize=4;endSize=4;dashed=1;exitX=0.5;exitY=1;exitDx=0;exitDy=0;entryX=0.5;entryY=1;entryDx=0;entryDy=0;" parent="1" source="S5-y5zS6l2NAs_fPD0nN-84" target="S5-y5zS6l2NAs_fPD0nN-123" edge="1">
                    <mxGeometry relative="1" as="geometry">
                        <mxPoint x="224.25" y="820" as="targetPoint"/>
                        <mxPoint x="770" y="819" as="sourcePoint"/>
                    </mxGeometry>
                </mxCell>
                <mxCell id="S5-y5zS6l2NAs_fPD0nN-123" value="Payment receipt &amp;amp; history" style="text;html=1;align=center;verticalAlign=middle;resizable=0;points=[];autosize=1;strokeColor=none;fillColor=none;" parent="1" vertex="1">
                    <mxGeometry x="612.5" y="790" width="160" height="30" as="geometry"/>
                </mxCell>
                <mxCell id="S5-y5zS6l2NAs_fPD0nN-124" value="&lt;span style=&quot;&quot;&gt;Maintenance request / tracking&lt;br&gt;&lt;/span&gt;&lt;span style=&quot;&quot;&gt;Check in / out&lt;br&gt;&lt;/span&gt;&lt;span style=&quot;&quot;&gt;Electrical appliances registration&lt;br&gt;&lt;/span&gt;&lt;span style=&quot;&quot;&gt;Room changing / cancellation&lt;/span&gt;&lt;span style=&quot;&quot;&gt;&lt;br&gt;&lt;/span&gt;" style="text;html=1;align=center;verticalAlign=middle;resizable=0;points=[];autosize=1;strokeColor=none;fillColor=none;" parent="1" vertex="1">
                    <mxGeometry x="560" y="675" width="200" height="70" as="geometry"/>
                </mxCell>
                <mxCell id="S5-y5zS6l2NAs_fPD0nN-125" style="edgeStyle=none;curved=1;html=1;exitX=1;exitY=0.25;exitDx=0;exitDy=0;endArrow=classic;endFill=1;startSize=4;endSize=4;entryX=1;entryY=0.75;entryDx=0;entryDy=0;" parent="1" edge="1">
                    <mxGeometry relative="1" as="geometry">
                        <mxPoint x="573" y="769" as="targetPoint"/>
                        <Array as="points">
                            <mxPoint x="591.5" y="740"/>
                            <mxPoint x="601.5" y="750"/>
                            <mxPoint x="591.5" y="770"/>
                        </Array>
                        <mxPoint x="573.44" y="749" as="sourcePoint"/>
                    </mxGeometry>
                </mxCell>
            </root>
        </mxGraphModel>
    </diagram>
    <diagram id="iFQRDJOVOMvrm3s8KDK2" name="activity_diagram">
        <mxGraphModel dx="1198" dy="440" grid="1" gridSize="10" guides="1" tooltips="1" connect="1" arrows="1" fold="1" page="1" pageScale="1" pageWidth="850" pageHeight="1100" math="0" shadow="0">
            <root>
                <mxCell id="0"/>
                <mxCell id="1" parent="0"/>
                <mxCell id="08bzLbOTh_HCko4q4lLe-1" value="" style="swimlane;startSize=40;fontSize=19;fillColor=#1ba1e2;fontColor=#ffffff;strokeColor=#006EAF;" parent="1" vertex="1">
                    <mxGeometry x="70" y="9" width="220" height="972.5" as="geometry"/>
                </mxCell>
                <mxCell id="08bzLbOTh_HCko4q4lLe-4" value="&lt;font color=&quot;#000000&quot;&gt;Student&lt;/font&gt;" style="text;html=1;strokeColor=none;fillColor=none;align=center;verticalAlign=middle;whiteSpace=wrap;rounded=0;fontSize=19;fontStyle=1" parent="08bzLbOTh_HCko4q4lLe-1" vertex="1">
                    <mxGeometry x="70.78" y="-5" width="70" height="40" as="geometry"/>
                </mxCell>
                <mxCell id="08bzLbOTh_HCko4q4lLe-7" value="" style="edgeStyle=none;html=1;fontSize=12;entryX=0.434;entryY=0.006;entryDx=0;entryDy=0;entryPerimeter=0;" parent="08bzLbOTh_HCko4q4lLe-1" source="08bzLbOTh_HCko4q4lLe-8" target="08bzLbOTh_HCko4q4lLe-14" edge="1">
                    <mxGeometry relative="1" as="geometry"/>
                </mxCell>
                <mxCell id="08bzLbOTh_HCko4q4lLe-8" value="&lt;font style=&quot;font-size: 12px;&quot;&gt;log in to the system&lt;/font&gt;" style="rounded=1;whiteSpace=wrap;html=1;fontFamily=Helvetica;fontSize=19;fontColor=default;align=center;strokeColor=default;fillColor=default;" parent="08bzLbOTh_HCko4q4lLe-1" vertex="1">
                    <mxGeometry x="44.38" y="100" width="121.25" height="60" as="geometry"/>
                </mxCell>
                <mxCell id="08bzLbOTh_HCko4q4lLe-9" value="" style="edgeStyle=none;html=1;fontSize=19;" parent="08bzLbOTh_HCko4q4lLe-1" source="08bzLbOTh_HCko4q4lLe-10" target="08bzLbOTh_HCko4q4lLe-8" edge="1">
                    <mxGeometry relative="1" as="geometry"/>
                </mxCell>
                <mxCell id="08bzLbOTh_HCko4q4lLe-10" value="" style="ellipse;whiteSpace=wrap;html=1;aspect=fixed;fontSize=19;" parent="08bzLbOTh_HCko4q4lLe-1" vertex="1">
                    <mxGeometry x="95" y="50" width="20" height="20" as="geometry"/>
                </mxCell>
                <mxCell id="08bzLbOTh_HCko4q4lLe-14" value="&lt;font style=&quot;font-size: 12px;&quot;&gt;request for room application&lt;/font&gt;" style="rounded=1;whiteSpace=wrap;html=1;fontFamily=Helvetica;fontSize=19;fontColor=default;align=center;strokeColor=default;fillColor=default;" parent="08bzLbOTh_HCko4q4lLe-1" vertex="1">
                    <mxGeometry x="52.7" y="200" width="121.25" height="60" as="geometry"/>
                </mxCell>
                <mxCell id="08bzLbOTh_HCko4q4lLe-15" value="" style="edgeStyle=none;html=1;fontSize=12;" parent="08bzLbOTh_HCko4q4lLe-1" source="08bzLbOTh_HCko4q4lLe-16" target="08bzLbOTh_HCko4q4lLe-18" edge="1">
                    <mxGeometry relative="1" as="geometry"/>
                </mxCell>
                <mxCell id="08bzLbOTh_HCko4q4lLe-16" value="&lt;font style=&quot;font-size: 12px;&quot;&gt;check room availability and select room&lt;/font&gt;" style="rounded=1;whiteSpace=wrap;html=1;fontFamily=Helvetica;fontSize=19;fontColor=default;align=center;strokeColor=default;fillColor=default;" parent="08bzLbOTh_HCko4q4lLe-1" vertex="1">
                    <mxGeometry x="39.379999999999995" y="361" width="129.21" height="60" as="geometry"/>
                </mxCell>
                <mxCell id="08bzLbOTh_HCko4q4lLe-18" value="&lt;span style=&quot;font-size: 12px;&quot;&gt;submit room application,electrical appliances registration and room changing&lt;/span&gt;" style="rounded=1;whiteSpace=wrap;html=1;fontFamily=Helvetica;fontSize=19;fontColor=default;align=center;strokeColor=default;fillColor=default;" parent="08bzLbOTh_HCko4q4lLe-1" vertex="1">
                    <mxGeometry x="25.47" y="450" width="164.53" height="90" as="geometry"/>
                </mxCell>
                <mxCell id="08bzLbOTh_HCko4q4lLe-20" value="&lt;span style=&quot;font-size: 12px;&quot;&gt;get room info and room key&lt;/span&gt;" style="rounded=1;whiteSpace=wrap;html=1;fontFamily=Helvetica;fontSize=19;fontColor=default;align=center;strokeColor=default;fillColor=default;" parent="08bzLbOTh_HCko4q4lLe-1" vertex="1">
                    <mxGeometry x="31.7" y="670" width="122.8" height="60" as="geometry"/>
                </mxCell>
                <mxCell id="08bzLbOTh_HCko4q4lLe-22" value="&lt;span style=&quot;font-size: 12px;&quot;&gt;pay room fees&lt;/span&gt;" style="rounded=1;whiteSpace=wrap;html=1;fontFamily=Helvetica;fontSize=19;fontColor=default;align=center;strokeColor=default;fillColor=default;" parent="08bzLbOTh_HCko4q4lLe-1" vertex="1">
                    <mxGeometry x="18.88" y="570" width="135.62" height="60" as="geometry"/>
                </mxCell>
                <mxCell id="08bzLbOTh_HCko4q4lLe-25" value="&lt;span style=&quot;font-size: 12px;&quot;&gt;report maintenance issues&lt;/span&gt;" style="rounded=1;whiteSpace=wrap;html=1;fontFamily=Helvetica;fontSize=19;fontColor=default;align=center;strokeColor=default;fillColor=default;" parent="08bzLbOTh_HCko4q4lLe-1" vertex="1">
                    <mxGeometry x="31.63" y="771" width="135.62" height="60" as="geometry"/>
                </mxCell>
                <mxCell id="08bzLbOTh_HCko4q4lLe-27" value="" style="edgeStyle=none;html=1;fontSize=12;" parent="08bzLbOTh_HCko4q4lLe-1" source="08bzLbOTh_HCko4q4lLe-28" target="08bzLbOTh_HCko4q4lLe-48" edge="1">
                    <mxGeometry relative="1" as="geometry"/>
                </mxCell>
                <mxCell id="08bzLbOTh_HCko4q4lLe-28" value="&lt;span style=&quot;font-size: 12px;&quot;&gt;tracking status&lt;/span&gt;" style="rounded=1;whiteSpace=wrap;html=1;fontFamily=Helvetica;fontSize=19;fontColor=default;align=center;strokeColor=default;fillColor=default;" parent="08bzLbOTh_HCko4q4lLe-1" vertex="1">
                    <mxGeometry x="52.699999999999996" y="851" width="90.24" height="50" as="geometry"/>
                </mxCell>
                <mxCell id="08bzLbOTh_HCko4q4lLe-48" value="" style="shape=sumEllipse;perimeter=ellipsePerimeter;whiteSpace=wrap;html=1;backgroundOutline=1;fontSize=12;" parent="08bzLbOTh_HCko4q4lLe-1" vertex="1">
                    <mxGeometry x="87.82" y="930" width="20" height="20" as="geometry"/>
                </mxCell>
                <mxCell id="KhxTzlz5c82D9XYJnz5z-4" value="Approve request?" style="html=1;whiteSpace=wrap;aspect=fixed;shape=isoRectangle;" parent="08bzLbOTh_HCko4q4lLe-1" vertex="1">
                    <mxGeometry x="52.68000000000001" y="280" width="110.12" height="66.07" as="geometry"/>
                </mxCell>
                <mxCell id="KhxTzlz5c82D9XYJnz5z-6" value="" style="endArrow=classic;html=1;entryX=0.548;entryY=0.058;entryDx=0;entryDy=0;entryPerimeter=0;exitX=0.5;exitY=1;exitDx=0;exitDy=0;" parent="08bzLbOTh_HCko4q4lLe-1" source="08bzLbOTh_HCko4q4lLe-14" target="KhxTzlz5c82D9XYJnz5z-4" edge="1">
                    <mxGeometry width="50" height="50" relative="1" as="geometry">
                        <mxPoint x="100" y="260" as="sourcePoint"/>
                        <mxPoint x="50" y="310" as="targetPoint"/>
                    </mxGeometry>
                </mxCell>
                <mxCell id="HwJEhi6wVq8UYHt6iP5t-5" value="" style="edgeStyle=none;html=1;fontSize=12;endArrow=none;" parent="08bzLbOTh_HCko4q4lLe-1" target="08bzLbOTh_HCko4q4lLe-47" edge="1">
                    <mxGeometry relative="1" as="geometry">
                        <mxPoint x="170" y="810" as="targetPoint"/>
                        <mxPoint x="598.4057481894679" y="780.4815558449086" as="sourcePoint"/>
                    </mxGeometry>
                </mxCell>
                <mxCell id="s7ypzgUM0j1cLoFP-JTu-3" value="" style="endArrow=classic;html=1;exitX=0.077;exitY=0.363;exitDx=0;exitDy=0;exitPerimeter=0;" parent="08bzLbOTh_HCko4q4lLe-1" source="KhxTzlz5c82D9XYJnz5z-4" edge="1">
                    <mxGeometry width="50" height="50" relative="1" as="geometry">
                        <mxPoint x="50" y="305" as="sourcePoint"/>
                        <mxPoint x="62.7" y="225" as="targetPoint"/>
                        <Array as="points">
                            <mxPoint x="10" y="305"/>
                            <mxPoint x="12.7" y="255"/>
                            <mxPoint x="12.7" y="225"/>
                        </Array>
                    </mxGeometry>
                </mxCell>
                <mxCell id="s7ypzgUM0j1cLoFP-JTu-4" value="NO" style="text;html=1;align=center;verticalAlign=middle;resizable=0;points=[];autosize=1;strokeColor=none;fillColor=none;" parent="08bzLbOTh_HCko4q4lLe-1" vertex="1">
                    <mxGeometry x="4.380000000000003" y="250" width="40" height="30" as="geometry"/>
                </mxCell>
                <mxCell id="08bzLbOTh_HCko4q4lLe-35" value="&lt;font style=&quot;font-size: 12px;&quot;&gt;room assigment&lt;/font&gt;" style="rhombus;whiteSpace=wrap;html=1;fontFamily=Helvetica;fontSize=19;fontColor=default;align=center;strokeColor=default;fillColor=default;" parent="08bzLbOTh_HCko4q4lLe-1" vertex="1">
                    <mxGeometry x="530" y="560" width="121.25" height="60" as="geometry"/>
                </mxCell>
                <mxCell id="s7ypzgUM0j1cLoFP-JTu-15" value="" style="endArrow=classic;html=1;fontSize=12;exitX=0.5;exitY=1;exitDx=0;exitDy=0;" parent="08bzLbOTh_HCko4q4lLe-1" source="08bzLbOTh_HCko4q4lLe-18" edge="1">
                    <mxGeometry width="50" height="50" relative="1" as="geometry">
                        <mxPoint x="50" y="560" as="sourcePoint"/>
                        <mxPoint x="108" y="571" as="targetPoint"/>
                    </mxGeometry>
                </mxCell>
                <mxCell id="s7ypzgUM0j1cLoFP-JTu-16" value="" style="endArrow=classic;html=1;fontSize=12;exitX=0.5;exitY=1;exitDx=0;exitDy=0;" parent="08bzLbOTh_HCko4q4lLe-1" source="08bzLbOTh_HCko4q4lLe-22" edge="1">
                    <mxGeometry width="50" height="50" relative="1" as="geometry">
                        <mxPoint x="40" y="660" as="sourcePoint"/>
                        <mxPoint x="87" y="671" as="targetPoint"/>
                    </mxGeometry>
                </mxCell>
                <mxCell id="s7ypzgUM0j1cLoFP-JTu-20" value="" style="endArrow=classic;html=1;fontSize=12;" parent="08bzLbOTh_HCko4q4lLe-1" source="08bzLbOTh_HCko4q4lLe-20" edge="1">
                    <mxGeometry width="50" height="50" relative="1" as="geometry">
                        <mxPoint x="40" y="700" as="sourcePoint"/>
                        <mxPoint x="93" y="771" as="targetPoint"/>
                    </mxGeometry>
                </mxCell>
                <mxCell id="s7ypzgUM0j1cLoFP-JTu-2" value="YES" style="text;html=1;align=center;verticalAlign=middle;resizable=0;points=[];autosize=1;strokeColor=none;fillColor=none;" parent="08bzLbOTh_HCko4q4lLe-1" vertex="1">
                    <mxGeometry x="173.95" y="291" width="50" height="30" as="geometry"/>
                </mxCell>
                <mxCell id="rJ4aIP9SFQpLtjfm8oc7-1" value="" style="endArrow=classic;html=1;exitX=0.949;exitY=0.465;exitDx=0;exitDy=0;exitPerimeter=0;" parent="08bzLbOTh_HCko4q4lLe-1" source="KhxTzlz5c82D9XYJnz5z-4" edge="1">
                    <mxGeometry width="50" height="50" relative="1" as="geometry">
                        <mxPoint x="210" y="321" as="sourcePoint"/>
                        <mxPoint x="260" y="311" as="targetPoint"/>
                    </mxGeometry>
                </mxCell>
                <mxCell id="xlekcr2ivGQt3DfnOvnY-95" value="" style="swimlane;startSize=40;fontSize=19;fillColor=#e51400;fontColor=#ffffff;strokeColor=#B20000;" parent="1" vertex="1">
                    <mxGeometry x="290" y="10" width="241.25" height="972.5" as="geometry"/>
                </mxCell>
                <mxCell id="xlekcr2ivGQt3DfnOvnY-96" value="Admin" style="text;html=1;strokeColor=none;fillColor=none;align=center;verticalAlign=middle;whiteSpace=wrap;rounded=0;fontSize=19;fontStyle=1" parent="xlekcr2ivGQt3DfnOvnY-95" vertex="1">
                    <mxGeometry x="76.88" y="-2.5" width="70" height="40" as="geometry"/>
                </mxCell>
                <mxCell id="xlekcr2ivGQt3DfnOvnY-141" value="&lt;b&gt;Fellow&lt;/b&gt;" style="text;html=1;strokeColor=none;fillColor=none;align=center;verticalAlign=middle;whiteSpace=wrap;rounded=0;fontSize=19;" parent="xlekcr2ivGQt3DfnOvnY-95" vertex="1">
                    <mxGeometry x="890" y="-2.5" width="140" height="35" as="geometry"/>
                </mxCell>
                <mxCell id="KhxTzlz5c82D9XYJnz5z-9" value="&lt;font style=&quot;font-size: 12px;&quot;&gt;log in to the system&lt;/font&gt;" style="rounded=1;whiteSpace=wrap;html=1;fontFamily=Helvetica;fontSize=19;fontColor=default;align=center;strokeColor=default;fillColor=default;" parent="xlekcr2ivGQt3DfnOvnY-95" vertex="1">
                    <mxGeometry x="54.00000000000001" y="100" width="121.25" height="60" as="geometry"/>
                </mxCell>
                <mxCell id="08bzLbOTh_HCko4q4lLe-42" value="&lt;span style=&quot;font-size: 12px;&quot;&gt;finance department will proceed the payment&lt;/span&gt;" style="rounded=1;whiteSpace=wrap;html=1;fontFamily=Helvetica;fontSize=19;fontColor=default;align=center;strokeColor=default;fillColor=default;" parent="xlekcr2ivGQt3DfnOvnY-95" vertex="1">
                    <mxGeometry x="37.97" y="260" width="159.06" height="80" as="geometry"/>
                </mxCell>
                <mxCell id="08bzLbOTh_HCko4q4lLe-40" value="&lt;span style=&quot;font-size: 12px;&quot;&gt;generate fee invoice&lt;/span&gt;" style="rounded=1;whiteSpace=wrap;html=1;fontFamily=Helvetica;fontSize=19;fontColor=default;align=center;strokeColor=default;fillColor=default;" parent="xlekcr2ivGQt3DfnOvnY-95" vertex="1">
                    <mxGeometry x="55.00000000000002" y="660" width="125" height="60" as="geometry"/>
                </mxCell>
                <mxCell id="08bzLbOTh_HCko4q4lLe-44" value="&lt;font style=&quot;font-size: 12px;&quot;&gt;Receives payment&lt;/font&gt;" style="rounded=1;whiteSpace=wrap;html=1;fontFamily=Helvetica;fontSize=19;fontColor=default;align=center;strokeColor=default;fillColor=default;" parent="xlekcr2ivGQt3DfnOvnY-95" vertex="1">
                    <mxGeometry x="54" y="580" width="126" height="60" as="geometry"/>
                </mxCell>
                <mxCell id="HwJEhi6wVq8UYHt6iP5t-6" value="get report of maintenance issues" style="rounded=1;whiteSpace=wrap;html=1;fontFamily=Helvetica;fontSize=12;fontColor=default;align=center;strokeColor=default;fillColor=default;" parent="xlekcr2ivGQt3DfnOvnY-95" vertex="1">
                    <mxGeometry x="57.82" y="850" width="108.12" height="60" as="geometry"/>
                </mxCell>
                <mxCell id="s7ypzgUM0j1cLoFP-JTu-5" value="" style="ellipse;whiteSpace=wrap;html=1;aspect=fixed;fontSize=19;" parent="xlekcr2ivGQt3DfnOvnY-95" vertex="1">
                    <mxGeometry x="104.63000000000001" y="50" width="20" height="20" as="geometry"/>
                </mxCell>
                <mxCell id="s7ypzgUM0j1cLoFP-JTu-7" value="" style="endArrow=classic;html=1;" parent="xlekcr2ivGQt3DfnOvnY-95" edge="1">
                    <mxGeometry width="50" height="50" relative="1" as="geometry">
                        <mxPoint x="115" y="70" as="sourcePoint"/>
                        <mxPoint x="115" y="100" as="targetPoint"/>
                    </mxGeometry>
                </mxCell>
                <mxCell id="avfpuVfN0ZxDxHYgIqP2-4" value="Maintenance" style="rhombus;whiteSpace=wrap;html=1;" parent="xlekcr2ivGQt3DfnOvnY-95" vertex="1">
                    <mxGeometry x="60.559999999999995" y="775" width="108.13" height="50" as="geometry"/>
                </mxCell>
                <mxCell id="08bzLbOTh_HCko4q4lLe-36" value="YES" style="text;html=1;strokeColor=none;fillColor=none;align=center;verticalAlign=middle;whiteSpace=wrap;rounded=0;fontSize=12;" parent="xlekcr2ivGQt3DfnOvnY-95" vertex="1">
                    <mxGeometry x="64.63" y="540" width="60" height="30" as="geometry"/>
                </mxCell>
                <mxCell id="T0S537xz1SNcN7PmSN04-1" value="" style="endArrow=classic;html=1;" parent="xlekcr2ivGQt3DfnOvnY-95" edge="1">
                    <mxGeometry width="50" height="50" relative="1" as="geometry">
                        <mxPoint x="120" y="640" as="sourcePoint"/>
                        <mxPoint x="120" y="660" as="targetPoint"/>
                    </mxGeometry>
                </mxCell>
                <mxCell id="T0S537xz1SNcN7PmSN04-3" value="NO" style="text;html=1;align=center;verticalAlign=middle;resizable=0;points=[];autosize=1;strokeColor=none;fillColor=none;" parent="xlekcr2ivGQt3DfnOvnY-95" vertex="1">
                    <mxGeometry x="14" y="825" width="40" height="30" as="geometry"/>
                </mxCell>
                <mxCell id="xlekcr2ivGQt3DfnOvnY-142" value="" style="swimlane;startSize=40;fontSize=19;fillColor=#e3c800;fontColor=#000000;strokeColor=#B09500;" parent="1" vertex="1">
                    <mxGeometry x="531.25" y="10" width="237.80999999999995" height="972.5" as="geometry"/>
                </mxCell>
                <mxCell id="xlekcr2ivGQt3DfnOvnY-143" value="Staff" style="text;html=1;strokeColor=none;fillColor=none;align=center;verticalAlign=middle;whiteSpace=wrap;rounded=0;fontSize=19;fontStyle=1;fontColor=#000000;" parent="xlekcr2ivGQt3DfnOvnY-142" vertex="1">
                    <mxGeometry x="70.78" y="-5" width="69.22" height="40" as="geometry"/>
                </mxCell>
                <mxCell id="xlekcr2ivGQt3DfnOvnY-145" value="&lt;b&gt;Fellow&lt;/b&gt;" style="text;html=1;strokeColor=none;fillColor=none;align=center;verticalAlign=middle;whiteSpace=wrap;rounded=0;fontSize=19;" parent="xlekcr2ivGQt3DfnOvnY-142" vertex="1">
                    <mxGeometry x="890" y="-2.5" width="140" height="35" as="geometry"/>
                </mxCell>
                <mxCell id="KhxTzlz5c82D9XYJnz5z-7" value="&lt;font style=&quot;font-size: 12px;&quot;&gt;log in to the system&lt;/font&gt;" style="rounded=1;whiteSpace=wrap;html=1;fontFamily=Helvetica;fontSize=19;fontColor=default;align=center;strokeColor=default;fillColor=default;" parent="xlekcr2ivGQt3DfnOvnY-142" vertex="1">
                    <mxGeometry x="43.32000000000001" y="100" width="121.25" height="60" as="geometry"/>
                </mxCell>
                <mxCell id="KhxTzlz5c82D9XYJnz5z-8" value="" style="ellipse;whiteSpace=wrap;html=1;aspect=fixed;fontSize=19;" parent="xlekcr2ivGQt3DfnOvnY-142" vertex="1">
                    <mxGeometry x="99.99999999999999" y="50" width="20" height="20" as="geometry"/>
                </mxCell>
                <mxCell id="08bzLbOTh_HCko4q4lLe-12" value="&lt;font style=&quot;font-size: 12px;&quot;&gt;review the student information&amp;nbsp;&lt;/font&gt;" style="rounded=1;whiteSpace=wrap;html=1;fontFamily=Helvetica;fontSize=19;fontColor=default;align=center;strokeColor=default;fillColor=default;" parent="xlekcr2ivGQt3DfnOvnY-142" vertex="1">
                    <mxGeometry x="49.37" y="190" width="121.25" height="60" as="geometry"/>
                </mxCell>
                <mxCell id="08bzLbOTh_HCko4q4lLe-30" value="&lt;span style=&quot;font-size: 12px;&quot;&gt;show the student's room preferences&amp;nbsp;&lt;/span&gt;" style="rounded=1;whiteSpace=wrap;html=1;fontFamily=Helvetica;fontSize=19;fontColor=default;align=center;strokeColor=default;fillColor=default;" parent="xlekcr2ivGQt3DfnOvnY-142" vertex="1">
                    <mxGeometry x="44.62" y="270" width="130.75" height="70" as="geometry"/>
                </mxCell>
                <mxCell id="08bzLbOTh_HCko4q4lLe-11" value="" style="edgeStyle=none;html=1;fontSize=12;" parent="xlekcr2ivGQt3DfnOvnY-142" source="08bzLbOTh_HCko4q4lLe-12" target="08bzLbOTh_HCko4q4lLe-30" edge="1">
                    <mxGeometry relative="1" as="geometry"/>
                </mxCell>
                <mxCell id="KhxTzlz5c82D9XYJnz5z-10" value="" style="edgeStyle=none;html=1;fontSize=19;exitX=0.5;exitY=1;exitDx=0;exitDy=0;entryX=0.559;entryY=0.033;entryDx=0;entryDy=0;entryPerimeter=0;" parent="xlekcr2ivGQt3DfnOvnY-142" source="KhxTzlz5c82D9XYJnz5z-8" target="KhxTzlz5c82D9XYJnz5z-7" edge="1">
                    <mxGeometry relative="1" as="geometry">
                        <mxPoint x="110" y="80" as="sourcePoint"/>
                        <mxPoint x="120" y="100" as="targetPoint"/>
                        <Array as="points">
                            <mxPoint x="110" y="90"/>
                        </Array>
                    </mxGeometry>
                </mxCell>
                <mxCell id="08bzLbOTh_HCko4q4lLe-32" value="&lt;span style=&quot;font-size: 12px;&quot;&gt;determine room requirement&lt;/span&gt;" style="rounded=1;whiteSpace=wrap;html=1;fontFamily=Helvetica;fontSize=19;fontColor=default;align=center;strokeColor=default;fillColor=default;" parent="xlekcr2ivGQt3DfnOvnY-142" vertex="1">
                    <mxGeometry x="64.96000000000001" y="470" width="121.25" height="60" as="geometry"/>
                </mxCell>
                <mxCell id="08bzLbOTh_HCko4q4lLe-37" value="&lt;span style=&quot;font-size: 12px;&quot;&gt;add student to waitlist&lt;/span&gt;" style="rounded=1;whiteSpace=wrap;html=1;fontFamily=Helvetica;fontSize=19;fontColor=default;align=center;strokeColor=default;fillColor=default;" parent="xlekcr2ivGQt3DfnOvnY-142" vertex="1">
                    <mxGeometry x="74.38" y="650" width="110" height="60" as="geometry"/>
                </mxCell>
                <mxCell id="08bzLbOTh_HCko4q4lLe-38" value="NO" style="text;html=1;strokeColor=none;fillColor=none;align=center;verticalAlign=middle;whiteSpace=wrap;rounded=0;fontSize=12;" parent="xlekcr2ivGQt3DfnOvnY-142" vertex="1">
                    <mxGeometry x="115.36999999999999" y="620" width="60" height="30" as="geometry"/>
                </mxCell>
                <mxCell id="KhxTzlz5c82D9XYJnz5z-11" value="manage room application,electrical appliances registration and room changing" style="rounded=1;whiteSpace=wrap;html=1;fontFamily=Helvetica;fontSize=12;fontColor=default;align=center;strokeColor=default;fillColor=default;" parent="xlekcr2ivGQt3DfnOvnY-142" vertex="1">
                    <mxGeometry x="64.96" y="370" width="145.04" height="70" as="geometry"/>
                </mxCell>
                <mxCell id="HwJEhi6wVq8UYHt6iP5t-4" value="&lt;font style=&quot;font-size: 12px;&quot;&gt;prioritize maintenance requests and send report&lt;/font&gt;" style="rounded=1;whiteSpace=wrap;html=1;fontFamily=Helvetica;fontSize=19;fontColor=default;align=center;strokeColor=default;fillColor=default;" parent="xlekcr2ivGQt3DfnOvnY-142" vertex="1">
                    <mxGeometry x="70.78" y="810" width="140.58" height="70" as="geometry"/>
                </mxCell>
                <mxCell id="s7ypzgUM0j1cLoFP-JTu-9" value="" style="endArrow=classic;html=1;" parent="xlekcr2ivGQt3DfnOvnY-142" source="KhxTzlz5c82D9XYJnz5z-7" edge="1">
                    <mxGeometry width="50" height="50" relative="1" as="geometry">
                        <mxPoint x="60" y="210" as="sourcePoint"/>
                        <mxPoint x="103.75" y="190" as="targetPoint"/>
                    </mxGeometry>
                </mxCell>
                <mxCell id="s7ypzgUM0j1cLoFP-JTu-10" value="" style="endArrow=classic;html=1;" parent="xlekcr2ivGQt3DfnOvnY-142" edge="1">
                    <mxGeometry width="50" height="50" relative="1" as="geometry">
                        <mxPoint x="130" y="440" as="sourcePoint"/>
                        <mxPoint x="130" y="470" as="targetPoint"/>
                    </mxGeometry>
                </mxCell>
                <mxCell id="08bzLbOTh_HCko4q4lLe-47" value="&lt;font style=&quot;font-size: 12px;&quot;&gt;update student and room records&amp;nbsp;&lt;/font&gt;" style="rounded=1;whiteSpace=wrap;html=1;fontFamily=Helvetica;fontSize=19;fontColor=default;align=center;strokeColor=default;fillColor=default;" parent="xlekcr2ivGQt3DfnOvnY-142" vertex="1">
                    <mxGeometry x="70.78" y="720" width="120.37" height="60" as="geometry"/>
                </mxCell>
                <mxCell id="rJ4aIP9SFQpLtjfm8oc7-2" value="" style="endArrow=classic;html=1;" parent="xlekcr2ivGQt3DfnOvnY-142" edge="1">
                    <mxGeometry width="50" height="50" relative="1" as="geometry">
                        <mxPoint x="68.75" y="590" as="sourcePoint"/>
                        <mxPoint x="-351.25" y="550" as="targetPoint"/>
                    </mxGeometry>
                </mxCell>
                <mxCell id="xlekcr2ivGQt3DfnOvnY-147" value="" style="swimlane;startSize=40;fontSize=19;fillColor=#6a00ff;fontColor=#ffffff;strokeColor=#3700CC;" parent="1" vertex="1">
                    <mxGeometry x="770" y="10" width="220" height="972.5" as="geometry"/>
                </mxCell>
                <mxCell id="xlekcr2ivGQt3DfnOvnY-148" value="Fellow" style="text;html=1;strokeColor=none;fillColor=none;align=center;verticalAlign=middle;whiteSpace=wrap;rounded=0;fontSize=19;fontStyle=1;fontColor=#FFFFFF;" parent="xlekcr2ivGQt3DfnOvnY-147" vertex="1">
                    <mxGeometry x="70.78" y="-5" width="69.22" height="40" as="geometry"/>
                </mxCell>
                <mxCell id="xlekcr2ivGQt3DfnOvnY-149" value="&lt;b&gt;Staff&lt;/b&gt;" style="text;html=1;strokeColor=none;fillColor=none;align=center;verticalAlign=middle;whiteSpace=wrap;rounded=0;fontSize=19;" parent="xlekcr2ivGQt3DfnOvnY-147" vertex="1">
                    <mxGeometry x="570" y="-2.5" width="140" height="35" as="geometry"/>
                </mxCell>
                <mxCell id="xlekcr2ivGQt3DfnOvnY-150" value="&lt;b&gt;Fellow&lt;/b&gt;" style="text;html=1;strokeColor=none;fillColor=none;align=center;verticalAlign=middle;whiteSpace=wrap;rounded=0;fontSize=19;" parent="xlekcr2ivGQt3DfnOvnY-147" vertex="1">
                    <mxGeometry x="890" y="-2.5" width="140" height="35" as="geometry"/>
                </mxCell>
                <mxCell id="s7ypzgUM0j1cLoFP-JTu-22" value="" style="ellipse;whiteSpace=wrap;html=1;aspect=fixed;fontSize=19;" parent="xlekcr2ivGQt3DfnOvnY-147" vertex="1">
                    <mxGeometry x="95.38999999999999" y="50" width="20" height="20" as="geometry"/>
                </mxCell>
                <mxCell id="s7ypzgUM0j1cLoFP-JTu-23" value="&lt;font style=&quot;font-size: 12px;&quot;&gt;log in to the system&lt;/font&gt;" style="rounded=1;whiteSpace=wrap;html=1;fontFamily=Helvetica;fontSize=19;fontColor=default;align=center;strokeColor=default;fillColor=default;" parent="xlekcr2ivGQt3DfnOvnY-147" vertex="1">
                    <mxGeometry x="44.75999999999999" y="110" width="121.25" height="60" as="geometry"/>
                </mxCell>
                <mxCell id="s7ypzgUM0j1cLoFP-JTu-26" value="" style="endArrow=classic;html=1;fontSize=12;exitX=0.5;exitY=0;exitDx=0;exitDy=0;entryX=0.5;entryY=0;entryDx=0;entryDy=0;" parent="xlekcr2ivGQt3DfnOvnY-147" target="s7ypzgUM0j1cLoFP-JTu-23" edge="1">
                    <mxGeometry width="50" height="50" relative="1" as="geometry">
                        <mxPoint x="105" y="70" as="sourcePoint"/>
                        <mxPoint x="50" y="120" as="targetPoint"/>
                    </mxGeometry>
                </mxCell>
                <mxCell id="s7ypzgUM0j1cLoFP-JTu-27" value="collect student college merits" style="rounded=1;whiteSpace=wrap;html=1;fontFamily=Helvetica;fontSize=12;fontColor=default;align=center;strokeColor=default;fillColor=default;" parent="xlekcr2ivGQt3DfnOvnY-147" vertex="1">
                    <mxGeometry x="46.01" y="210" width="120" height="80" as="geometry"/>
                </mxCell>
                <mxCell id="s7ypzgUM0j1cLoFP-JTu-28" value="" style="endArrow=classic;html=1;fontSize=12;exitX=0.444;exitY=0.006;exitDx=0;exitDy=0;exitPerimeter=0;entryX=0.444;entryY=0.006;entryDx=0;entryDy=0;entryPerimeter=0;" parent="xlekcr2ivGQt3DfnOvnY-147" target="s7ypzgUM0j1cLoFP-JTu-27" edge="1">
                    <mxGeometry width="50" height="50" relative="1" as="geometry">
                        <mxPoint x="100" y="170" as="sourcePoint"/>
                        <mxPoint x="50" y="220" as="targetPoint"/>
                    </mxGeometry>
                </mxCell>
                <mxCell id="s7ypzgUM0j1cLoFP-JTu-29" value="Quota active application success rate" style="rounded=1;whiteSpace=wrap;html=1;fontFamily=Helvetica;fontSize=12;fontColor=default;align=center;strokeColor=default;fillColor=default;" parent="xlekcr2ivGQt3DfnOvnY-147" vertex="1">
                    <mxGeometry x="50" y="365" width="120" height="80" as="geometry"/>
                </mxCell>
                <mxCell id="s7ypzgUM0j1cLoFP-JTu-30" value="" style="endArrow=classic;html=1;fontSize=12;exitX=0.5;exitY=0;exitDx=0;exitDy=0;entryX=0.5;entryY=0;entryDx=0;entryDy=0;" parent="xlekcr2ivGQt3DfnOvnY-147" target="s7ypzgUM0j1cLoFP-JTu-29" edge="1">
                    <mxGeometry width="50" height="50" relative="1" as="geometry">
                        <mxPoint x="110" y="290" as="sourcePoint"/>
                        <mxPoint x="60" y="340" as="targetPoint"/>
                    </mxGeometry>
                </mxCell>
                <mxCell id="08bzLbOTh_HCko4q4lLe-29" value="" style="edgeStyle=none;html=1;fontSize=12;entryX=1;entryY=0.5;entryDx=0;entryDy=0;" parent="1" source="08bzLbOTh_HCko4q4lLe-30" target="08bzLbOTh_HCko4q4lLe-16" edge="1">
                    <mxGeometry relative="1" as="geometry"/>
                </mxCell>
                <mxCell id="08bzLbOTh_HCko4q4lLe-17" value="" style="edgeStyle=none;html=1;fontSize=12;entryX=0;entryY=0.5;entryDx=0;entryDy=0;" parent="1" source="08bzLbOTh_HCko4q4lLe-18" target="KhxTzlz5c82D9XYJnz5z-11" edge="1">
                    <mxGeometry relative="1" as="geometry"/>
                </mxCell>
                <mxCell id="08bzLbOTh_HCko4q4lLe-13" value="" style="edgeStyle=none;html=1;fontSize=12;" parent="1" source="08bzLbOTh_HCko4q4lLe-14" edge="1">
                    <mxGeometry relative="1" as="geometry">
                        <mxPoint x="630" y="180" as="targetPoint"/>
                    </mxGeometry>
                </mxCell>
                <mxCell id="08bzLbOTh_HCko4q4lLe-31" value="" style="edgeStyle=none;html=1;fontSize=12;entryX=0.5;entryY=0;entryDx=0;entryDy=0;" parent="1" target="08bzLbOTh_HCko4q4lLe-35" edge="1">
                    <mxGeometry relative="1" as="geometry">
                        <mxPoint x="660" y="540" as="sourcePoint"/>
                    </mxGeometry>
                </mxCell>
                <mxCell id="08bzLbOTh_HCko4q4lLe-33" value="" style="edgeStyle=none;html=1;fontSize=12;entryX=0.5;entryY=0;entryDx=0;entryDy=0;" parent="1" source="08bzLbOTh_HCko4q4lLe-35" target="08bzLbOTh_HCko4q4lLe-37" edge="1">
                    <mxGeometry relative="1" as="geometry">
                        <Array as="points"/>
                    </mxGeometry>
                </mxCell>
                <mxCell id="s7ypzgUM0j1cLoFP-JTu-13" value="" style="endArrow=classic;html=1;" parent="1" source="08bzLbOTh_HCko4q4lLe-22" edge="1">
                    <mxGeometry width="50" height="50" relative="1" as="geometry">
                        <mxPoint x="290" y="690" as="sourcePoint"/>
                        <mxPoint x="340" y="610" as="targetPoint"/>
                    </mxGeometry>
                </mxCell>
                <mxCell id="08bzLbOTh_HCko4q4lLe-19" value="" style="edgeStyle=none;html=1;fontSize=12;" parent="1" source="08bzLbOTh_HCko4q4lLe-20" edge="1">
                    <mxGeometry relative="1" as="geometry">
                        <Array as="points">
                            <mxPoint x="390" y="740"/>
                        </Array>
                        <mxPoint x="600" y="760" as="targetPoint"/>
                    </mxGeometry>
                </mxCell>
                <mxCell id="avfpuVfN0ZxDxHYgIqP2-1" value="" style="edgeStyle=none;html=1;" parent="1" source="s7ypzgUM0j1cLoFP-JTu-29" target="KhxTzlz5c82D9XYJnz5z-11" edge="1">
                    <mxGeometry relative="1" as="geometry"/>
                </mxCell>
                <mxCell id="avfpuVfN0ZxDxHYgIqP2-2" value="" style="edgeStyle=none;html=1;entryX=1;entryY=0.5;entryDx=0;entryDy=0;" parent="1" source="HwJEhi6wVq8UYHt6iP5t-6" target="08bzLbOTh_HCko4q4lLe-28" edge="1">
                    <mxGeometry relative="1" as="geometry"/>
                </mxCell>
                <mxCell id="avfpuVfN0ZxDxHYgIqP2-3" value="" style="edgeStyle=none;html=1;" parent="1" source="HwJEhi6wVq8UYHt6iP5t-4" target="HwJEhi6wVq8UYHt6iP5t-6" edge="1">
                    <mxGeometry relative="1" as="geometry"/>
                </mxCell>
                <mxCell id="avfpuVfN0ZxDxHYgIqP2-5" value="" style="edgeStyle=none;html=1;" parent="1" source="08bzLbOTh_HCko4q4lLe-25" target="avfpuVfN0ZxDxHYgIqP2-4" edge="1">
                    <mxGeometry relative="1" as="geometry"/>
                </mxCell>
                <mxCell id="avfpuVfN0ZxDxHYgIqP2-6" value="" style="edgeStyle=none;html=1;exitX=1;exitY=0.5;exitDx=0;exitDy=0;" parent="1" source="avfpuVfN0ZxDxHYgIqP2-4" target="HwJEhi6wVq8UYHt6iP5t-4" edge="1">
                    <mxGeometry relative="1" as="geometry"/>
                </mxCell>
                <mxCell id="avfpuVfN0ZxDxHYgIqP2-7" value="" style="edgeStyle=none;html=1;entryX=1;entryY=0.5;entryDx=0;entryDy=0;" parent="1" source="avfpuVfN0ZxDxHYgIqP2-4" target="08bzLbOTh_HCko4q4lLe-48" edge="1">
                    <mxGeometry relative="1" as="geometry"/>
                </mxCell>
                <mxCell id="T0S537xz1SNcN7PmSN04-2" value="YES" style="text;html=1;align=center;verticalAlign=middle;resizable=0;points=[];autosize=1;strokeColor=none;fillColor=none;" parent="1" vertex="1">
                    <mxGeometry x="485" y="785" width="50" height="30" as="geometry"/>
                </mxCell>
            </root>
        </mxGraphModel>
    </diagram>
</mxfile>